<svg width="119" height="105" viewBox="0 0 119 105" fill="none" xmlns="http://www.w3.org/2000/svg">
<mask id="path-1-inside-1" fill="white">
<path fill-rule="evenodd" clip-rule="evenodd" d="M59.5 105C92.3609 105 119 81.4949 119 52.5C119 23.5051 92.3609 0 59.5 0C26.6391 0 0 23.5051 0 52.5C0 81.4949 26.6391 105 59.5 105ZM50.7852 58.9258C54.0195 60.4023 55.3906 62.5352 54.8984 65.3242C54.5938 67.1523 53.6328 68.6172 52.0156 69.7188C50.3984 70.8203 48.3359 71.3711 45.8281 71.3711C40.0391 71.2773 37.3086 68.4531 37.6367 62.8984L27.3359 62.8633C27.2422 66.0273 27.8867 68.8398 29.2695 71.3008C30.7461 73.9492 32.9023 76 35.7383 77.4531C38.5742 78.9062 41.8086 79.668 45.4414 79.7383C49.0039 79.8086 52.2617 79.2578 55.2148 78.0859C58.1914 76.9141 60.5352 75.2383 62.2461 73.0586C63.9805 70.8555 64.9531 68.2422 65.1641 65.2188C65.6094 59.0312 62.375 54.2266 55.4609 50.8047L52.7891 49.5742L48.1484 47.8164C44.2812 46.3164 42.5703 44.2891 43.0156 41.7344C43.3438 39.7891 44.375 38.2656 46.1094 37.1641C47.8438 36.0391 49.8828 35.5 52.2266 35.5469C54.6172 35.5938 56.375 36.2617 57.5 37.5508C58.6484 38.8398 59.1641 40.6445 59.0469 42.9648H69.3125C69.3594 38.1836 67.8594 34.375 64.8125 31.5391C61.7656 28.6797 57.7695 27.2031 52.8242 27.1094C49.2383 27.0625 45.8984 27.6719 42.8047 28.9375C39.7109 30.1797 37.3086 31.9023 35.5977 34.1055C33.8867 36.3086 32.9492 38.8398 32.7852 41.6992C32.3867 47.8633 36.125 52.7031 44 56.2188L50.7852 58.9258ZM80.3516 70C79.25 68.9688 77.9141 68.4766 76.3438 68.5234C74.75 68.5703 73.4258 69.1328 72.3711 70.2109C71.3164 71.2891 70.8125 72.6133 70.8594 74.1836C70.9062 75.7539 71.4688 77.0312 72.5469 78.0156C73.625 79 74.9492 79.4688 76.5195 79.4219C78.0898 79.4219 79.4141 78.8828 80.4922 77.8047C81.5703 76.7031 82.0859 75.3789 82.0391 73.832C82.0391 72.2852 81.4766 71.0078 80.3516 70Z"/>
</mask>
<path fill-rule="evenodd" clip-rule="evenodd" d="M59.5 105C92.3609 105 119 81.4949 119 52.5C119 23.5051 92.3609 0 59.5 0C26.6391 0 0 23.5051 0 52.5C0 81.4949 26.6391 105 59.5 105ZM50.7852 58.9258C54.0195 60.4023 55.3906 62.5352 54.8984 65.3242C54.5938 67.1523 53.6328 68.6172 52.0156 69.7188C50.3984 70.8203 48.3359 71.3711 45.8281 71.3711C40.0391 71.2773 37.3086 68.4531 37.6367 62.8984L27.3359 62.8633C27.2422 66.0273 27.8867 68.8398 29.2695 71.3008C30.7461 73.9492 32.9023 76 35.7383 77.4531C38.5742 78.9062 41.8086 79.668 45.4414 79.7383C49.0039 79.8086 52.2617 79.2578 55.2148 78.0859C58.1914 76.9141 60.5352 75.2383 62.2461 73.0586C63.9805 70.8555 64.9531 68.2422 65.1641 65.2188C65.6094 59.0312 62.375 54.2266 55.4609 50.8047L52.7891 49.5742L48.1484 47.8164C44.2812 46.3164 42.5703 44.2891 43.0156 41.7344C43.3438 39.7891 44.375 38.2656 46.1094 37.1641C47.8438 36.0391 49.8828 35.5 52.2266 35.5469C54.6172 35.5938 56.375 36.2617 57.5 37.5508C58.6484 38.8398 59.1641 40.6445 59.0469 42.9648H69.3125C69.3594 38.1836 67.8594 34.375 64.8125 31.5391C61.7656 28.6797 57.7695 27.2031 52.8242 27.1094C49.2383 27.0625 45.8984 27.6719 42.8047 28.9375C39.7109 30.1797 37.3086 31.9023 35.5977 34.1055C33.8867 36.3086 32.9492 38.8398 32.7852 41.6992C32.3867 47.8633 36.125 52.7031 44 56.2188L50.7852 58.9258ZM80.3516 70C79.25 68.9688 77.9141 68.4766 76.3438 68.5234C74.75 68.5703 73.4258 69.1328 72.3711 70.2109C71.3164 71.2891 70.8125 72.6133 70.8594 74.1836C70.9062 75.7539 71.4688 77.0312 72.5469 78.0156C73.625 79 74.9492 79.4688 76.5195 79.4219C78.0898 79.4219 79.4141 78.8828 80.4922 77.8047C81.5703 76.7031 82.0859 75.3789 82.0391 73.832C82.0391 72.2852 81.4766 71.0078 80.3516 70Z" fill="url(#paint0_radial)"/>
<path d="M54.8984 65.3242L52.9289 64.9766L52.9272 64.986L52.9256 64.9954L54.8984 65.3242ZM50.7852 58.9258L51.6157 57.1064L51.5715 57.0862L51.5263 57.0682L50.7852 58.9258ZM45.8281 71.3711L45.7957 73.3708L45.8119 73.3711H45.8281V71.3711ZM37.6367 62.8984L39.6332 63.0164L39.7579 60.9057L37.6435 60.8984L37.6367 62.8984ZM27.3359 62.8633L27.3428 60.8633L25.3945 60.8566L25.3368 62.804L27.3359 62.8633ZM29.2695 71.3008L31.0164 70.3269L31.0131 70.321L29.2695 71.3008ZM45.4414 79.7383L45.4809 77.7387L45.4801 77.7387L45.4414 79.7383ZM55.2148 78.0859L54.4822 76.225L54.4772 76.227L55.2148 78.0859ZM62.2461 73.0586L60.6746 71.8215L60.6729 71.8237L62.2461 73.0586ZM65.1641 65.2188L63.1692 65.0752L63.1689 65.0796L65.1641 65.2188ZM55.4609 50.8047L56.3481 49.0122L56.323 48.9998L56.2975 48.9881L55.4609 50.8047ZM52.7891 49.5742L53.6257 47.7576L53.5625 47.7285L53.4975 47.7039L52.7891 49.5742ZM48.1484 47.8164L47.4252 49.6811L47.4326 49.6839L47.44 49.6867L48.1484 47.8164ZM43.0156 41.7344L44.9859 42.0778L44.9878 42.067L43.0156 41.7344ZM46.1094 37.1641L47.1816 38.8523L47.1897 38.8472L47.1978 38.842L46.1094 37.1641ZM52.2266 35.5469L52.1866 37.5465L52.1874 37.5465L52.2266 35.5469ZM57.5 37.5508L55.9932 38.8658L55.9999 38.8736L56.0067 38.8812L57.5 37.5508ZM59.0469 42.9648L57.0494 42.864L56.9433 44.9648H59.0469V42.9648ZM69.3125 42.9648V44.9648H71.293L71.3124 42.9845L69.3125 42.9648ZM64.8125 31.5391L63.4439 32.9974L63.4499 33.003L64.8125 31.5391ZM52.8242 27.1094L52.8621 25.1097L52.8504 25.1095L52.8242 27.1094ZM42.8047 28.9375L43.5499 30.7935L43.562 30.7886L42.8047 28.9375ZM32.7852 41.6992L34.781 41.8282L34.7815 41.821L34.7819 41.8138L32.7852 41.6992ZM44 56.2188L43.1847 58.045L43.2215 58.0614L43.2589 58.0764L44 56.2188ZM76.3438 68.5234L76.4025 70.5226L76.4034 70.5225L76.3438 68.5234ZM80.3516 70L78.9847 71.46L79.0007 71.475L79.0171 71.4897L80.3516 70ZM76.5195 79.4219V77.4219H76.4897L76.4599 77.4228L76.5195 79.4219ZM80.4922 77.8047L81.9064 79.2189L81.914 79.2113L81.9215 79.2036L80.4922 77.8047ZM82.0391 73.832H80.0391V73.8623L80.04 73.8926L82.0391 73.832ZM117 52.5C117 80.1625 91.499 103 59.5 103V107C93.2229 107 121 82.8274 121 52.5H117ZM59.5 2C91.499 2 117 24.8375 117 52.5H121C121 22.1726 93.2229 -2 59.5 -2V2ZM2 52.5C2 24.8375 27.501 2 59.5 2V-2C25.7771 -2 -2 22.1726 -2 52.5H2ZM59.5 103C27.501 103 2 80.1625 2 52.5H-2C-2 82.8274 25.7771 107 59.5 107V103ZM56.868 65.6718C57.1905 63.8444 56.9118 62.0916 55.9216 60.5513C54.9611 59.0572 53.4472 57.9425 51.6157 57.1064L49.9546 60.7452C51.3575 61.3856 52.1463 62.0756 52.5569 62.7143C52.9378 63.3068 53.0986 64.015 52.9289 64.9766L56.868 65.6718ZM53.1416 71.3717C55.1817 69.982 56.4713 68.0523 56.8712 65.653L52.9256 64.9954C52.7162 66.2524 52.0839 67.2524 50.8897 68.0658L53.1416 71.3717ZM45.8281 73.3711C48.6249 73.3711 51.1101 72.7554 53.1416 71.3717L50.8897 68.0658C49.6867 68.8852 48.0469 69.3711 45.8281 69.3711V73.3711ZM35.6402 62.7805C35.4572 65.8783 36.1067 68.6139 38.0006 70.5728C39.8785 72.5152 42.6207 73.3194 45.7957 73.3708L45.8605 69.3714C43.2464 69.329 41.7289 68.6743 40.8764 67.7925C40.0398 66.9272 39.4881 65.4733 39.6332 63.0164L35.6402 62.7805ZM27.3291 64.8633L37.6299 64.8984L37.6435 60.8984L27.3428 60.8633L27.3291 64.8633ZM31.0131 70.321C29.8292 68.214 29.2507 65.7687 29.3351 62.9225L25.3368 62.804C25.2336 66.286 25.9443 69.4657 27.5259 72.2805L31.0131 70.321ZM36.6503 75.6732C34.1473 74.3907 32.2904 72.612 31.0164 70.3269L27.5227 72.2747C29.2018 75.2865 31.6574 77.6093 34.8262 79.2331L36.6503 75.6732ZM45.4801 77.7387C42.1085 77.6734 39.18 76.9694 36.6503 75.6732L34.8262 79.2331C37.9685 80.8431 41.5087 81.6625 45.4027 81.7379L45.4801 77.7387ZM54.4772 76.227C51.7995 77.2895 48.8098 77.8044 45.4809 77.7387L45.4019 81.7379C49.198 81.8128 52.724 81.2261 55.9525 79.9449L54.4772 76.227ZM60.6729 71.8237C59.2135 73.6829 57.1797 75.1629 54.4822 76.225L55.9475 79.9469C59.2031 78.6652 61.8568 76.7937 63.8193 74.2935L60.6729 71.8237ZM63.1689 65.0796C62.9835 67.7368 62.1406 69.9593 60.6746 71.8215L63.8176 74.2957C65.8203 71.7517 66.9227 68.7476 67.1592 65.3579L63.1689 65.0796ZM54.5738 52.5972C57.8191 54.2033 60.0442 56.0579 61.4132 58.0915C62.7624 60.0958 63.3622 62.3934 63.1692 65.0752L67.1589 65.3623C67.4112 61.8566 66.6165 58.6581 64.7314 55.8577C62.866 53.0867 60.0168 50.8279 56.3481 49.0122L54.5738 52.5972ZM51.9525 51.3908L54.6243 52.6213L56.2975 48.9881L53.6257 47.7576L51.9525 51.3908ZM47.44 49.6867L52.0806 51.4445L53.4975 47.7039L48.8569 45.9461L47.44 49.6867ZM41.0453 41.3909C40.7184 43.2666 41.2094 45.0069 42.4364 46.4608C43.5964 47.8354 45.3388 48.8718 47.4252 49.6811L48.8717 45.9518C47.0908 45.261 46.0442 44.5338 45.4933 43.881C45.0094 43.3076 44.8675 42.7569 44.9859 42.0778L41.0453 41.3909ZM45.0371 35.4758C42.8467 36.867 41.4702 38.8717 41.0435 41.4017L44.9878 42.067C45.2173 40.7065 45.9033 39.6643 47.1816 38.8523L45.0371 35.4758ZM52.2666 33.5473C49.5784 33.4935 47.1345 34.1152 45.021 35.4861L47.1978 38.842C48.553 37.9629 50.1873 37.5065 52.1866 37.5465L52.2666 33.5473ZM59.0068 36.2357C57.3823 34.3742 54.9891 33.6007 52.2658 33.5473L52.1874 37.5465C54.2453 37.5868 55.3677 38.1492 55.9932 38.8658L59.0068 36.2357ZM61.0443 43.0657C61.1786 40.407 60.5984 38.022 58.9933 36.2204L56.0067 38.8812C56.6984 39.6577 57.1495 40.882 57.0494 42.864L61.0443 43.0657ZM69.3125 40.9648H59.0469V44.9648H69.3125V40.9648ZM63.4499 33.003C66.0224 35.3975 67.3549 38.6341 67.3126 42.9452L71.3124 42.9845C71.3639 37.7331 69.6964 33.3525 66.1751 30.0751L63.4499 33.003ZM52.7863 29.109C57.3327 29.1952 60.8228 30.5377 63.4439 32.9974L66.1811 30.0807C62.7084 26.8217 58.2064 25.211 52.8621 25.1097L52.7863 29.109ZM43.562 30.7886C46.3895 29.6319 49.4608 29.0656 52.7981 29.1092L52.8504 25.1095C49.0158 25.0594 45.4074 25.7119 42.0474 27.0864L43.562 30.7886ZM37.1773 35.3322C38.6318 33.4592 40.7207 31.9294 43.5499 30.7935L42.0595 27.0815C38.7012 28.4299 35.9854 30.3455 34.018 32.8788L37.1773 35.3322ZM34.7819 41.8138C34.9234 39.3473 35.7218 37.2064 37.1773 35.3322L34.018 32.8788C32.0517 35.4108 30.975 38.3324 30.7884 41.5847L34.7819 41.8138ZM44.8153 54.3925C41.063 52.7173 38.4741 50.8027 36.8729 48.7296C35.3046 46.6992 34.6128 44.4299 34.781 41.8282L30.7893 41.5702C30.5591 45.1326 31.5372 48.3653 33.7072 51.1747C35.8442 53.9414 39.062 56.2046 43.1847 58.045L44.8153 54.3925ZM51.5263 57.0682L44.7411 54.3611L43.2589 58.0764L50.044 60.7834L51.5263 57.0682ZM76.4034 70.5225C77.4699 70.4907 78.2861 70.806 78.9847 71.46L81.7184 68.54C80.2139 67.1315 78.3582 66.4624 76.2841 66.5243L76.4034 70.5225ZM73.8008 71.6095C74.4712 70.9242 75.2936 70.5552 76.4025 70.5226L76.285 66.5243C74.2064 66.5854 72.3804 67.3414 70.9414 68.8123L73.8008 71.6095ZM72.8585 74.1239C72.8271 73.0715 73.1435 72.2813 73.8008 71.6095L70.9414 68.8123C69.4893 70.2968 68.7979 72.1551 68.8603 74.2433L72.8585 74.1239ZM73.8954 76.5387C73.2496 75.949 72.8906 75.199 72.8585 74.1239L68.8603 74.2433C68.9219 76.3088 69.6879 78.1135 71.1983 79.4926L73.8954 76.5387ZM76.4599 77.4228C75.3655 77.4554 74.5588 77.1444 73.8954 76.5387L71.1983 79.4926C72.6912 80.8556 74.533 81.4821 76.5792 81.421L76.4599 77.4228ZM79.078 76.3905C78.3873 77.0812 77.5772 77.4219 76.5195 77.4219V81.4219C78.6025 81.4219 80.4408 80.6845 81.9064 79.2189L79.078 76.3905ZM80.04 73.8926C80.0705 74.8982 79.7587 75.6947 79.0628 76.4058L81.9215 79.2036C83.3819 77.7115 84.1014 75.8596 84.0381 73.7715L80.04 73.8926ZM79.0171 71.4897C79.707 72.1078 80.0391 72.8381 80.0391 73.832H84.0391C84.0391 71.7322 83.2461 69.9079 81.6861 68.5103L79.0171 71.4897Z" fill="#AFFB4E" mask="url(#path-1-inside-1)"/>
<defs>
<radialGradient id="paint0_radial" cx="0" cy="0" r="1" gradientUnits="userSpaceOnUse" gradientTransform="translate(59.5 52.5) rotate(90) scale(52.5 59.5)">
<stop offset="0.5" stop-color="#AFFB4E"/>
<stop offset="1" stop-color="#FFDC7B"/>
</radialGradient>
</defs>
</svg>
