<?xml version="1.0" standalone="no"?>
<!DOCTYPE svg PUBLIC "-//W3C//DTD SVG 20010904//EN"
 "http://www.w3.org/TR/2001/REC-SVG-20010904/DTD/svg10.dtd">
<svg version="1.0" xmlns="http://www.w3.org/2000/svg"
 width="240.000000pt" height="240.000000pt" viewBox="0 0 240.000000 240.000000"
 preserveAspectRatio="xMidYMid meet">

<g transform="translate(0.000000,240.000000) scale(0.100000,-0.100000)"
fill="#000000" stroke="none">
<path d="M1164 2036 c-48 -22 -49 -35 -1 -19 23 9 85 18 137 20 113 6 171 -12
265 -80 67 -49 103 -86 73 -74 -49 18 25 -32 96 -65 66 -31 114 -76 143 -136
27 -54 28 -65 34 -242 4 -141 9 -192 21 -213 11 -20 17 -24 21 -13 3 8 0 17
-8 20 -11 4 -14 47 -17 198 l-3 193 -32 61 c-36 69 -72 103 -147 141 -28 14
-83 56 -123 94 -43 42 -94 80 -130 97 -52 24 -71 27 -178 30 -86 1 -129 -2
-151 -12z"/>
<path d="M846 1970 c-142 -67 -187 -100 -245 -181 -86 -121 -129 -235 -142
-383 -5 -62 -21 -147 -35 -192 -33 -109 -50 -177 -64 -251 -10 -56 -9 -67 10
-111 28 -65 70 -103 155 -140 l69 -30 -3 -44 c-1 -24 2 -62 7 -86 10 -42 9
-43 -21 -56 -18 -7 -47 -27 -66 -44 -18 -18 -37 -29 -42 -26 -5 3 -9 -2 -9
-10 0 -9 -3 -16 -8 -16 -8 0 -29 -46 -34 -75 -4 -29 16 -33 23 -4 11 49 31 89
45 89 8 0 14 4 14 9 0 5 25 23 56 41 l56 31 20 -20 c10 -12 56 -40 101 -62 45
-23 91 -49 102 -58 20 -16 20 -16 0 7 -10 13 -58 43 -105 68 -69 35 -90 51
-103 79 -9 20 -17 38 -17 41 0 3 26 -17 58 -44 31 -27 109 -80 172 -118 151
-89 188 -117 219 -161 32 -48 29 -90 -9 -151 -16 -25 -26 -50 -23 -56 7 -11
61 90 64 119 1 11 5 -5 9 -35 l7 -55 1 54 c4 113 -47 170 -266 300 -135 80
-242 164 -242 190 0 7 5 9 10 6 9 -6 16 46 11 83 -4 24 144 -62 189 -110 12
-13 20 -36 20 -55 0 -38 2 -39 35 -17 13 9 30 12 36 8 8 -4 9 -3 5 4 -4 7 4
27 17 44 14 18 30 51 36 72 10 39 55 96 75 96 6 0 17 14 24 30 l14 30 41 -25
c63 -39 187 -101 229 -114 l38 -12 -19 -37 c-11 -21 -29 -70 -41 -110 -12 -39
-25 -74 -30 -77 -15 -9 -177 153 -194 195 -19 47 -28 53 -16 9 12 -39 17 -46
116 -149 98 -102 118 -152 113 -279 -4 -66 -8 -84 -36 -126 -18 -27 -30 -51
-28 -54 9 -8 45 32 65 73 25 53 28 175 4 231 -22 53 -10 55 22 3 16 -25 29
-62 32 -91 3 -29 8 -45 14 -39 17 17 -5 93 -42 149 -34 50 -37 59 -28 87 43
134 77 193 117 202 54 12 62 16 115 59 66 54 170 181 187 230 7 19 15 35 19
35 3 0 3 46 2 103 -3 85 -1 105 12 116 9 8 16 21 16 30 -1 11 -5 8 -15 -9 -13
-23 -14 -23 -15 -5 0 12 18 38 40 60 33 32 41 36 55 25 13 -11 14 -10 9 4 -3
9 -10 16 -14 16 -5 0 -6 26 -3 58 6 68 -7 138 -43 231 -40 101 -45 93 -13 -21
40 -142 46 -197 25 -252 -9 -24 -26 -52 -36 -61 -26 -24 -25 -16 5 36 25 45
32 105 15 144 -6 14 -9 4 -9 -38 -1 -47 -10 -84 -26 -104 -1 -2 -22 4 -48 13
-44 15 -46 17 -36 42 14 37 2 124 -28 200 -34 83 -39 74 -8 -14 35 -98 33
-214 -4 -214 -13 0 -16 11 -14 62 l1 63 -7 -60 c-8 -61 -21 -96 -49 -127 -9
-11 -11 -18 -4 -18 6 0 21 14 34 30 12 17 26 30 31 30 5 0 3 -8 -4 -17 -13
-17 -13 -17 7 0 24 20 51 22 91 6 l28 -10 -33 -30 c-18 -16 -41 -29 -51 -29
-28 0 -86 -26 -102 -46 -9 -11 -9 -15 -2 -10 7 4 22 0 34 -8 12 -8 28 -12 35
-9 18 7 18 -18 -1 -43 -13 -16 -16 -17 -25 -4 -5 8 -11 20 -13 25 -3 6 -7 7
-11 3 -12 -11 13 -48 33 -48 30 0 44 26 38 70 -6 45 2 49 51 24 l32 -15 -3
-112 c-2 -81 -8 -121 -20 -144 -23 -43 -114 -146 -173 -195 l-49 -40 -75 4
c-66 4 -88 11 -175 55 -109 55 -207 122 -201 138 1 6 -8 29 -21 52 -12 23 -23
56 -23 73 0 21 -4 29 -12 24 -8 -5 -9 2 -4 27 8 41 95 170 126 185 12 7 17 13
10 16 -23 7 3 37 48 52 25 9 48 16 50 16 10 0 -25 -35 -53 -52 -16 -10 -26
-18 -22 -18 16 0 52 23 82 51 26 24 39 28 97 31 82 3 80 18 -2 18 l-59 0 11
31 c13 39 5 199 -11 225 -9 14 -11 14 -7 3 16 -54 17 -159 2 -211 -15 -53 -16
-54 -71 -72 -30 -9 -60 -14 -65 -11 -6 3 -10 -1 -10 -9 0 -9 -4 -16 -8 -16 -5
0 -17 -7 -28 -15 -18 -13 -18 -14 5 -8 28 7 30 11 -45 -100 -29 -42 -55 -90
-59 -105 -8 -37 11 -121 33 -145 9 -10 17 -25 18 -34 2 -8 14 -28 28 -42 15
-15 23 -30 19 -34 -11 -12 -23 -8 -23 8 0 8 -6 15 -14 15 -8 0 -28 14 -46 30
-18 17 -34 30 -36 30 -3 0 -18 14 -34 30 -38 39 -39 85 -5 159 36 77 24 74
-17 -4 -32 -61 -35 -64 -50 -48 -26 30 -68 116 -68 141 0 20 3 21 23 12 21
-11 21 -10 3 4 -29 23 -36 20 -36 -18 0 -39 41 -122 74 -151 13 -11 26 -35 30
-54 6 -32 5 -33 -22 -26 -31 8 -78 49 -97 86 -22 41 -47 166 -43 210 2 25 -1
40 -10 44 -25 10 11 -214 44 -266 27 -44 80 -89 103 -89 48 0 100 -47 71 -65
-6 -3 -10 -21 -10 -38 0 -18 -16 -69 -34 -114 -19 -45 -32 -84 -29 -87 3 -2 2
-9 -1 -14 -3 -6 -22 5 -41 23 -20 17 -63 47 -96 66 -88 49 -161 109 -186 155
-28 48 -30 37 -4 -15 11 -21 36 -50 56 -65 20 -16 34 -30 32 -32 -8 -8 -130
55 -159 83 -49 46 -71 99 -64 152 11 80 29 150 37 145 5 -3 6 2 3 11 -4 9 -1
35 6 58 25 84 27 85 35 22 12 -101 76 -282 105 -300 5 -3 1 9 -9 27 -27 47
-71 219 -77 308 -3 41 -1 128 5 192 8 97 16 132 46 204 63 151 144 257 240
315 l40 24 -23 -30 c-49 -64 -156 -235 -147 -235 2 0 36 47 76 105 79 117 124
160 207 201 58 28 127 37 167 20 20 -8 20 -7 1 8 -39 32 -101 20 -240 -44z
m888 -765 c-4 -8 -16 -15 -28 -15 -21 1 -21 1 -2 15 25 19 37 19 30 0z m-7
-41 c-3 -3 -12 -4 -19 -1 -8 3 -5 6 6 6 11 1 17 -2 13 -5z m-743 -356 c25 -22
46 -46 46 -53 0 -6 -15 -26 -34 -44 l-33 -32 -12 53 c-18 77 -24 118 -18 118
3 0 26 -19 51 -42z m-42 -92 c9 -45 8 -59 -3 -72 -13 -16 -15 -14 -20 12 -6
28 -7 27 -8 -8 0 -20 -5 -39 -11 -43 -5 -3 -7 -12 -4 -19 3 -7 -1 -20 -9 -27
-7 -8 -12 -20 -9 -27 2 -6 -1 -12 -6 -12 -19 0 -11 94 14 156 13 33 24 76 24
95 1 47 17 19 32 -55z m1 -115 c-3 -11 -14 -28 -25 -38 -20 -18 -21 -18 -13 7
13 44 49 73 38 31z"/>
<path d="M1133 1815 c0 -27 2 -38 4 -22 2 15 2 37 0 50 -2 12 -4 0 -4 -28z"/>
<path d="M716 1701 c-4 -5 3 -7 13 -4 16 4 21 -2 26 -31 4 -20 4 -53 1 -73 -5
-28 -4 -34 3 -23 14 20 14 96 1 121 -11 20 -35 25 -44 10z"/>
<path d="M1570 1661 c0 -6 4 -13 10 -16 6 -3 7 1 4 9 -7 18 -14 21 -14 7z"/>
<path d="M914 1628 c-5 -8 -2 -9 9 -5 17 6 21 -1 30 -63 3 -20 5 -18 6 8 2 53
-26 91 -45 60z"/>
<path d="M1076 1625 c-9 -26 -7 -32 5 -12 6 10 9 21 6 23 -2 3 -7 -2 -11 -11z"/>
<path d="M610 1603 c0 -38 41 -107 65 -111 18 -3 19 -2 2 8 -22 14 -59 87 -55
108 3 13 13 8 46 -24 23 -23 42 -37 41 -30 0 12 -76 76 -90 76 -5 0 -9 -12 -9
-27z"/>
<path d="M1010 1605 c-7 -9 -11 -17 -9 -20 3 -2 10 5 17 15 14 24 10 26 -8 5z"/>
<path d="M804 1583 c-11 -10 -15 -15 -10 -10 6 4 23 7 38 7 23 0 28 -4 28 -23
0 -28 -17 -47 -44 -47 -15 0 -17 -3 -9 -11 9 -9 18 -8 38 5 22 14 26 24 23 54
-4 43 -32 54 -64 25z"/>
<path d="M1220 1535 c0 -58 -44 -127 -131 -209 -108 -101 -139 -146 -103 -146
8 0 12 4 9 10 -11 17 14 49 93 116 42 36 89 83 104 105 30 45 52 129 37 144
-5 5 -9 -2 -9 -20z"/>
<path d="M646 1464 c-14 -14 -21 -35 -17 -56 0 -5 -12 -8 -27 -8 -38 0 -81
-21 -88 -43 -9 -28 2 -32 47 -17 23 8 37 16 31 18 -6 2 -21 -2 -32 -8 -32 -17
-39 -2 -10 20 29 22 88 26 112 8 9 -7 18 -26 20 -43 3 -29 4 -29 9 7 3 20 1
34 -3 32 -4 -3 -8 -1 -8 5 0 5 6 14 14 18 16 10 40 53 32 60 -3 3 -11 -6 -17
-21 -12 -25 -53 -45 -66 -33 -12 12 9 58 30 67 16 6 17 9 5 9 -9 1 -24 -6 -32
-15z"/>
<path d="M803 1451 c8 -22 8 -36 -1 -56 -16 -34 -32 -28 -49 16 l-13 34 6 -35
c8 -47 11 -50 40 -50 13 0 24 -4 24 -9 0 -11 61 -71 72 -71 5 0 6 6 2 13 -4 7
-3 9 2 4 5 -5 9 -12 9 -15 1 -17 18 -32 36 -32 16 0 7 15 -45 72 -52 57 -66
79 -66 104 0 17 -6 37 -14 44 -13 10 -13 7 -3 -19z m74 -147 c-8 -9 -57 42
-57 59 0 6 14 -3 32 -20 18 -18 29 -35 25 -39z"/>
<path d="M947 1473 c-4 -3 -7 -14 -7 -24 0 -10 -8 -23 -17 -28 -10 -6 -13 -10
-8 -11 19 0 32 15 37 43 6 29 5 31 -5 20z"/>
<path d="M572 1284 c-31 -30 -27 -78 6 -82 13 -2 31 3 41 12 14 13 20 13 31 3
12 -10 12 -9 2 4 -6 9 -9 19 -5 22 3 4 3 7 -1 7 -4 0 -14 -7 -22 -15 -21 -21
-64 -20 -64 2 0 9 7 24 16 34 13 14 20 15 45 6 23 -9 31 -8 42 3 6 8 8 12 3 8
-15 -12 -38 -10 -55 5 -14 11 -20 10 -39 -9z"/>
<path d="M1301 1261 c-6 -10 -25 -25 -43 -34 -18 -9 -27 -17 -20 -17 19 0 61
30 73 51 5 11 7 19 5 19 -3 0 -10 -8 -15 -19z"/>
<path d="M720 1248 c0 -7 12 -14 26 -14 14 -1 43 -16 64 -33 52 -41 60 -40 13
3 -58 51 -103 70 -103 44z"/>
<path d="M1604 1230 c-12 -5 -25 -13 -29 -19 -8 -13 7 -15 21 -2 5 5 18 11 29
13 11 2 16 6 10 10 -5 3 -20 2 -31 -2z"/>
<path d="M1142 1193 c-15 -16 -21 -23 -13 -16 9 6 32 18 51 26 28 13 31 16 13
16 -13 1 -35 -11 -51 -26z"/>
<path d="M1377 1203 c-4 -4 -35 -6 -68 -5 -69 2 -129 -20 -182 -64 l-32 -27
35 8 c19 4 49 7 65 5 17 -1 40 -3 53 -4 14 -1 22 -7 22 -18 0 -10 5 -18 11
-18 8 0 10 12 6 34 l-5 34 41 -5 c37 -4 40 -3 25 9 -15 13 -14 15 15 28 18 8
68 17 112 20 l80 6 -86 2 c-47 1 -89 -1 -92 -5z m-168 -47 c-2 -2 -22 -11 -44
-20 l-40 -16 24 20 c13 11 32 20 44 20 11 0 18 -2 16 -4z"/>
<path d="M1850 1166 c0 -34 -35 -126 -65 -170 -13 -20 -20 -36 -15 -36 6 0 10
-19 10 -42 0 -24 4 -38 8 -31 14 23 57 -107 57 -172 0 -60 -25 -123 -51 -132
-28 -9 -43 202 -19 272 3 11 -1 7 -11 -9 -14 -24 -16 -47 -11 -130 5 -99 22
-176 39 -176 4 0 20 24 35 53 23 44 28 64 28 132 0 61 -4 88 -18 108 -9 15
-24 54 -33 87 -14 57 -14 62 4 88 33 46 68 167 52 177 -6 4 -10 -5 -10 -19z"/>
<path d="M1960 1151 c0 -19 90 -105 132 -127 65 -33 193 -123 207 -146 8 -13
18 -36 23 -53 7 -26 7 -25 3 9 -6 50 -45 92 -145 153 -148 90 -181 114 -200
146 -11 18 -20 26 -20 18z"/>
<path d="M1190 1084 c0 -13 35 -33 55 -33 19 0 19 1 -1 9 -12 5 -25 13 -29 19
-7 12 -25 15 -25 5z"/>
<path d="M1120 1044 c0 -8 5 -12 10 -9 6 4 8 11 5 16 -9 14 -15 11 -15 -7z"/>
<path d="M402 1020 c0 -14 2 -19 5 -12 2 6 2 18 0 25 -3 6 -5 1 -5 -13z"/>
<path d="M1950 1020 c0 -36 52 -91 118 -124 81 -41 98 -58 111 -116 14 -61
-11 -112 -80 -162 -73 -53 -86 -47 -28 13 49 50 49 50 49 118 0 57 -3 71 -22
87 l-22 19 17 -25 c24 -34 22 -117 -3 -155 -10 -16 -57 -65 -102 -109 -46 -43
-63 -62 -39 -42 25 20 62 41 82 46 49 13 133 80 150 119 8 17 17 31 20 31 10
0 -17 119 -32 136 -7 9 -42 31 -78 49 -64 32 -106 68 -129 110 -8 14 -11 16
-12 5z"/>
<path d="M420 955 c0 -5 5 -17 10 -25 5 -8 10 -10 10 -5 0 6 -5 17 -10 25 -5
8 -10 11 -10 5z"/>
<path d="M483 910 c0 -30 2 -43 4 -27 2 15 2 39 0 55 -2 15 -4 2 -4 -28z"/>
<path d="M440 896 c0 -2 8 -10 18 -17 15 -13 16 -12 3 4 -13 16 -21 21 -21 13z"/>
<path d="M1530 850 c-8 -5 -11 -12 -7 -16 4 -4 13 -2 19 4 15 15 7 24 -12 12z"/>
<path d="M1315 830 c3 -5 13 -10 21 -10 8 0 12 5 9 10 -3 6 -13 10 -21 10 -8
0 -12 -4 -9 -10z"/>
<path d="M1792 800 c0 -19 2 -27 5 -17 2 9 2 25 0 35 -3 9 -5 1 -5 -18z"/>
<path d="M1803 685 c0 -38 2 -53 4 -32 2 20 2 52 0 70 -2 17 -4 1 -4 -38z"/>
<path d="M1082 670 c0 -14 2 -19 5 -12 2 6 2 18 0 25 -3 6 -5 1 -5 -13z"/>
<path d="M2172 580 c0 -19 2 -27 5 -17 2 9 2 25 0 35 -3 9 -5 1 -5 -18z"/>
<path d="M1480 526 c0 -31 146 -206 171 -206 7 0 -7 16 -30 36 -23 20 -65 68
-92 107 -27 39 -49 67 -49 63z"/>
<path d="M1575 440 c10 -11 20 -20 23 -20 3 0 -3 9 -13 20 -10 11 -20 20 -23
20 -3 0 3 -9 13 -20z"/>
<path d="M1350 423 c0 -12 70 -78 97 -92 12 -6 59 -18 105 -27 101 -19 133
-33 177 -74 47 -44 78 -63 91 -55 7 4 -13 25 -47 52 -75 58 -83 66 -58 58 11
-4 5 2 -12 14 -27 17 -37 19 -58 9 -17 -7 -28 -8 -37 -1 -7 6 -38 14 -69 17
-57 7 -80 19 -148 74 -23 19 -41 30 -41 25z"/>
<path d="M2020 423 c0 -12 38 -48 45 -41 3 2 -6 15 -20 28 -14 13 -25 19 -25
13z"/>
<path d="M1651 368 c28 -24 64 -51 78 -61 l26 -19 -26 24 c-57 51 -116 98
-123 98 -4 0 16 -19 45 -42z"/>
<path d="M1749 279 c-11 -7 -9 -9 7 -9 12 0 43 -12 68 -26 26 -15 49 -25 51
-23 2 2 -23 18 -54 35 -39 22 -63 29 -72 23z"/>
</g>
</svg>
