<svg width="36" height="32" viewBox="0 0 36 32" fill="none" xmlns="http://www.w3.org/2000/svg">
<path fill-rule="evenodd" clip-rule="evenodd" d="M27 31.5884L36 16L27 0.41156H9L0 16L9 31.5884H27ZM17.8479 6.40002H11.24V26H17.7361C19.1174 26 20.3679 25.804 21.488 25.412C22.6079 25.02 23.5227 24.5067 24.2319 23.872C24.9414 23.2187 25.5386 22.4626 26.0239 21.604C26.5093 20.7267 26.8452 19.84 27.032 18.944C27.2373 18.048 27.3401 17.1334 27.3401 16.2C27.3401 14.9307 27.1626 13.736 26.8081 12.616C26.4534 11.4774 25.9121 10.432 25.1841 9.47998C24.4561 8.52802 23.4573 7.78131 22.188 7.23999C20.9373 6.67999 19.4907 6.40002 17.8479 6.40002ZM22.1321 20.568C21.2734 21.8 19.9573 22.416 18.1841 22.416H15.02V9.98401H18.4919C20.0974 9.98401 21.3201 10.6 22.1599 11.832C23 13.0453 23.4199 14.5013 23.4199 16.2C23.4199 17.8613 22.9907 19.3173 22.1321 20.568Z" fill="FFBE0B"/>
</svg>
