<svg width="169" height="36" viewBox="0 0 169 36" fill="none" xmlns="http://www.w3.org/2000/svg">
<path d="M55.7949 16.8047H46.1445L44.3691 27H38.3574L42.7871 1.40625H59.4336L58.6074 6.16992H47.9902L46.9707 12.0586H56.6211L55.7949 16.8047ZM64.0391 27H58.0273L62.4746 1.40625H68.4688L64.0391 27ZM90.9512 6.16992H83.498L79.8945 27H73.8652L77.4863 6.16992H70.1562L71 1.40625H91.7773L90.9512 6.16992ZM102.922 22.2188H94.748L92.4805 27H85.8535L99.4062 1.40625H105.066L109.795 27H103.537L102.922 22.2188ZM96.998 17.4551H102.307L101.182 8.63086L96.998 17.4551ZM119.393 18.3164L117.881 27H111.869L116.299 1.40625L125.492 1.42383C128.34 1.42383 130.578 2.21484 132.207 3.79688C133.848 5.37891 134.568 7.42969 134.369 9.94922C134.229 11.6719 133.678 13.166 132.717 14.4316C131.756 15.6973 130.484 16.6641 128.902 17.332C127.332 18 125.568 18.334 123.611 18.334L119.393 18.3164ZM120.219 13.5527L123.84 13.5879C125.363 13.5527 126.529 13.0605 127.338 12.1113C128.146 11.1504 128.469 9.97266 128.305 8.57812C128.211 7.86328 127.936 7.30078 127.479 6.89062C127.033 6.46875 126.441 6.23438 125.703 6.1875L121.502 6.16992L120.219 13.5527ZM142.314 18.3164L140.803 27H134.791L139.221 1.40625L148.414 1.42383C151.262 1.42383 153.5 2.21484 155.129 3.79688C156.77 5.37891 157.49 7.42969 157.291 9.94922C157.15 11.6719 156.6 13.166 155.639 14.4316C154.678 15.6973 153.406 16.6641 151.824 17.332C150.254 18 148.49 18.334 146.533 18.334L142.314 18.3164ZM143.141 13.5527L146.762 13.5879C148.285 13.5527 149.451 13.0605 150.26 12.1113C151.068 11.1504 151.391 9.97266 151.227 8.57812C151.133 7.86328 150.857 7.30078 150.4 6.89062C149.955 6.46875 149.363 6.23438 148.625 6.1875L144.424 6.16992L143.141 13.5527Z" fill="#788BFF"/>
<path d="M66.7949 22.8047H57.1445L55.3691 33H49.3574L53.7871 7.40625H70.4336L69.6074 12.1699H58.9902L57.9707 18.0586H67.6211L66.7949 22.8047ZM75.0391 33H69.0273L73.4746 7.40625H79.4688L75.0391 33ZM101.951 12.1699H94.498L90.8945 33H84.8652L88.4863 12.1699H81.1562L82 7.40625H102.777L101.951 12.1699ZM113.922 28.2188H105.748L103.48 33H96.8535L110.406 7.40625H116.066L120.795 33H114.537L113.922 28.2188ZM107.998 23.4551H113.307L112.182 14.6309L107.998 23.4551ZM130.393 24.3164L128.881 33H122.869L127.299 7.40625L136.492 7.42383C139.34 7.42383 141.578 8.21484 143.207 9.79688C144.848 11.3789 145.568 13.4297 145.369 15.9492C145.229 17.6719 144.678 19.166 143.717 20.4316C142.756 21.6973 141.484 22.6641 139.902 23.332C138.332 24 136.568 24.334 134.611 24.334L130.393 24.3164ZM131.219 19.5527L134.84 19.5879C136.363 19.5527 137.529 19.0605 138.338 18.1113C139.146 17.1504 139.469 15.9727 139.305 14.5781C139.211 13.8633 138.936 13.3008 138.479 12.8906C138.033 12.4688 137.441 12.2344 136.703 12.1875L132.502 12.1699L131.219 19.5527ZM153.314 24.3164L151.803 33H145.791L150.221 7.40625L159.414 7.42383C162.262 7.42383 164.5 8.21484 166.129 9.79688C167.77 11.3789 168.49 13.4297 168.291 15.9492C168.15 17.6719 167.6 19.166 166.639 20.4316C165.678 21.6973 164.406 22.6641 162.824 23.332C161.254 24 159.49 24.334 157.533 24.334L153.314 24.3164ZM154.141 19.5527L157.762 19.5879C159.285 19.5527 160.451 19.0605 161.26 18.1113C162.068 17.1504 162.391 15.9727 162.227 14.5781C162.133 13.8633 161.857 13.3008 161.4 12.8906C160.955 12.4688 160.363 12.2344 159.625 12.1875L155.424 12.1699L154.141 19.5527Z" fill="#FF0000"/>
<g clip-path="url(#clip0)">
<path d="M27.9 8C29.55 8 30.9 6.65 30.9 5C30.9 3.35 29.55 2 27.9 2C26.25 2 24.9 3.35 24.9 5C24.9 6.65 26.25 8 27.9 8ZM22.5 28.85L24 22.25L27.15 25.25V34.25H30.15V23L27 20L27.9 15.5C29.85 17.75 32.85 19.25 36.15 19.25V16.25C33.3 16.25 30.9 14.75 29.7 12.65L28.2 10.25C27.6 9.35 26.7 8.75 25.65 8.75C25.2 8.75 24.9 8.9 24.45 8.9L16.65 12.2V19.25H19.65V14.15L22.35 13.1L19.95 25.25L12.6 23.75L12 26.75L22.5 28.85Z" fill="url(#paint0_linear)"/>
</g>
<defs>
<linearGradient id="paint0_linear" x1="24.075" y1="2" x2="24.075" y2="34.25" gradientUnits="userSpaceOnUse">
<stop stop-color="#788BFF"/>
<stop offset="0.9999" stop-color="#FF0000"/>
<stop offset="1" stop-opacity="0"/>
</linearGradient>
<clipPath id="clip0">
<rect width="36" height="36" fill="white"/>
</clipPath>
</defs>
</svg>
