<?xml version="1.0" standalone="no"?>
<!DOCTYPE svg PUBLIC "-//W3C//DTD SVG 20010904//EN"
 "http://www.w3.org/TR/2001/REC-SVG-20010904/DTD/svg10.dtd">
<svg version="1.0" xmlns="http://www.w3.org/2000/svg"
 width="8000.000000pt" height="4500.000000pt" viewBox="0 0 8000.000000 4500.000000"
 preserveAspectRatio="xMidYMid meet">

<g transform="translate(0.000000,4500.000000) scale(0.100000,-0.100000)"
fill="#000000" stroke="none">
<path d="M42277 28125 c-233 -44 -451 -159 -617 -325 -140 -140 -244 -320
-298 -517 l-27 -98 -3 -941 -3 -942 -2337 1346 c-1285 740 -2369 1360 -2408
1378 -215 100 -473 127 -714 74 -473 -103 -830 -493 -890 -974 -7 -54 -8 -930
-4 -2656 l6 -2575 101 -307 c56 -169 103 -306 104 -304 6 5 106 356 248 866
180 647 253 899 349 1206 327 1043 641 1624 1008 1867 156 103 300 144 468
134 412 -26 761 -351 1080 -1002 179 -367 332 -772 585 -1550 164 -506 326
-995 330 -995 2 0 40 25 84 56 152 104 340 178 520 204 133 20 346 8 456 -24
358 -107 634 -387 937 -947 l83 -154 5 -1540 c6 -1678 2 -1565 61 -1745 133
-404 501 -707 939 -771 181 -26 411 6 590 82 56 24 4667 2687 7725 4462 222
129 292 177 382 261 136 126 267 343 312 519 86 331 33 664 -148 939 -74 112
-195 236 -296 305 -75 50 55 -25 -4255 2456 -1988 1144 -3657 2100 -3707 2124
-144 69 -259 94 -438 99 -105 2 -174 -1 -228 -11z"/>
</g>
</svg>
