<?xml version="1.0" standalone="no"?>
<!DOCTYPE svg PUBLIC "-//W3C//DTD SVG 20010904//EN"
 "http://www.w3.org/TR/2001/REC-SVG-20010904/DTD/svg10.dtd">
<svg version="1.0" xmlns="http://www.w3.org/2000/svg"
 width="104.000000pt" height="161.000000pt" viewBox="0 0 104.000000 161.000000"
 preserveAspectRatio="xMidYMid meet">

<g transform="translate(0.000000,161.000000) scale(0.100000,-0.100000)"
fill="#000000" stroke="none">
<path d="M370 1521 c0 -15 5 -42 11 -59 9 -27 8 -36 -11 -62 -12 -17 -34 -68
-49 -113 -24 -77 -29 -83 -67 -102 -36 -17 -41 -24 -39 -47 4 -29 102 -133
137 -144 11 -3 17 -11 15 -17 -5 -14 -2 -14 -82 14 -155 54 -244 -35 -202
-201 10 -41 62 -139 122 -230 63 -98 66 -103 55 -136 -12 -36 -6 -58 15 -50 7
2 18 -1 24 -7 6 -6 11 -7 11 -2 0 6 5 3 10 -5 8 -12 12 -12 18 -2 12 18 28 -2
37 -48 4 -19 23 -63 42 -98 30 -56 33 -64 19 -77 -21 -22 -31 -82 -17 -111 24
-53 71 -12 79 68 3 29 11 62 18 73 8 11 14 43 14 72 0 46 3 53 20 53 23 0 27
-13 34 -125 5 -73 8 -82 36 -107 36 -33 75 -45 95 -28 22 18 18 43 -10 70 -32
30 -32 56 5 141 16 38 32 84 36 103 3 19 14 42 24 51 17 15 19 15 25 -5 6 -18
12 -20 48 -15 52 8 59 18 53 75 -4 31 -1 51 9 64 29 38 19 102 -32 202 l-47
93 24 26 c22 23 23 29 13 65 -7 29 -7 42 1 49 19 16 117 52 126 46 17 -11 20
15 5 44 -20 40 -19 75 4 147 15 45 20 89 20 186 0 71 -4 139 -8 152 -9 21 -13
22 -54 16 -44 -6 -117 -44 -117 -60 0 -5 -15 -3 -34 5 -46 20 -186 30 -224 17
-25 -9 -38 -6 -87 19 -32 16 -73 29 -91 29 -31 0 -34 -3 -34 -29z m590 -91 c0
-13 -5 -18 -15 -14 -12 5 -13 10 -4 20 15 19 19 18 19 -6z m-462 -2 c16 -16
15 -28 -2 -28 -7 0 -16 9 -19 20 -6 23 3 26 21 8z m176 -143 c20 -14 39 -25
41 -25 2 0 15 11 29 25 43 42 119 25 189 -43 54 -53 47 -69 -14 -27 -28 19
-68 40 -89 46 -33 10 -43 9 -78 -11 -39 -22 -41 -22 -85 -5 -56 21 -82 16
-159 -31 -71 -43 -129 -64 -179 -64 -80 0 -47 41 46 57 43 8 79 24 128 57 80
54 116 58 171 21z m-54 -185 c52 -28 -1 -86 -67 -74 -55 10 -73 22 -73 49 0
13 8 29 18 35 19 12 92 6 122 -10z m299 -15 c21 -20 4 -55 -31 -62 l-30 -6 23
-13 24 -13 -38 -16 c-21 -9 -64 -21 -95 -27 -68 -12 -240 -6 -267 10 -18 10
-18 11 8 12 37 0 87 22 120 53 44 40 83 52 128 40 35 -9 39 -8 39 8 0 35 85
45 119 14z m-634 -117 c23 -10 25 -16 25 -77 0 -58 -5 -74 -38 -132 -20 -37
-51 -79 -68 -93 l-32 -26 -33 65 -34 64 27 28 c35 37 58 93 58 143 0 39 1 40
35 40 19 0 46 -5 60 -12z m111 -40 c-6 -23 -12 -34 -14 -24 -5 23 6 66 17 66
4 0 3 -19 -3 -42z m89 -77 c4 -25 5 -97 4 -160 -4 -112 -3 -116 18 -119 20 -3
21 2 28 93 4 53 5 116 2 140 -5 33 -2 48 9 60 15 14 14 18 -12 42 l-28 25 35
-7 c19 -4 34 -8 34 -9 0 0 5 -10 11 -21 15 -26 41 -31 64 -10 17 15 18 10 22
-125 3 -125 6 -144 22 -156 11 -7 23 -11 28 -8 5 4 6 60 2 135 -5 97 -4 129 5
129 7 0 19 16 27 36 21 50 38 38 45 -34 4 -44 19 -88 52 -157 56 -115 59 -154
20 -193 l-28 -27 -2 30 c-2 17 -15 108 -30 202 -20 122 -32 173 -41 173 -8 0
-11 -7 -8 -17 2 -10 7 -38 11 -63 4 -25 15 -91 26 -148 20 -109 18 -169 -8
-210 -22 -36 -90 -61 -186 -68 -81 -6 -88 -5 -149 23 -89 42 -112 76 -104 151
4 31 20 100 36 152 15 52 30 118 33 145 6 47 5 48 -5 15 -48 -160 -78 -272
-81 -307 -4 -53 -14 -64 -23 -28 -13 50 5 143 50 257 25 63 48 127 52 143 l7
28 28 -34 c16 -20 30 -52 34 -78z m355 29 c0 -26 -3 -31 -10 -20 -5 8 -10 31
-10 50 0 26 3 31 10 20 5 -8 10 -31 10 -50z m-100 33 c0 -5 -5 -15 -10 -23 -8
-13 -10 -12 -10 3 0 9 -4 17 -10 17 -5 0 -11 -47 -13 -107 l-3 -108 -2 113 -2
112 25 0 c14 0 25 -3 25 -7z m-223 -135 c-2 -24 -4 -5 -4 42 0 47 2 66 4 43 2
-24 2 -62 0 -85z m-160 -365 c-3 -10 -5 -4 -5 12 0 17 2 24 5 18 2 -7 2 -21 0
-30z m218 -72 c0 -8 -8 -19 -18 -25 -14 -8 -20 -8 -27 4 -18 28 -11 41 18 38
15 -2 27 -9 27 -17z m102 -227 l23 -35 -23 6 c-22 6 -22 6 2 -15 27 -23 21
-41 -6 -19 -10 8 -30 21 -45 29 -32 15 -39 56 -10 63 32 9 37 6 59 -29z m-189
-1 c-2 -16 -8 -27 -16 -25 -7 1 -15 -11 -19 -28 -7 -36 -23 -50 -23 -21 0 11
4 22 10 26 5 3 7 12 4 20 -8 19 13 55 32 55 11 0 14 -8 12 -27z"/>
<path d="M710 1041 c0 -22 29 -43 51 -38 29 8 55 24 49 30 -9 8 -100 15 -100
8z"/>
<path d="M438 514 c-36 -70 -10 -63 28 9 11 21 12 27 2 27 -7 0 -21 -16 -30
-36z"/>
<path d="M713 520 c19 -84 23 -94 31 -82 4 7 2 29 -4 50 -15 44 -35 70 -27 32z"/>
</g>
</svg>
