<svg width="350" height="470" viewBox="0 0 350 470" fill="none" xmlns="http://www.w3.org/2000/svg">
<path fill-rule="evenodd" clip-rule="evenodd" d="M279.677 407.291C239.425 413.375 198.444 413.681 157.858 411.472C141.795 410.275 125.684 410.059 109.634 411.589C100.151 412.291 58.5695 415.454 55.1722 407.002C57.3104 361.993 61.641 316.601 74.9261 273.314C80.3896 257.943 85.0821 245.186 95.7456 232.467C99.1063 228.995 106.354 221.711 110.507 219.336C114.105 217.278 115.609 218.012 117.674 214.537C119.727 210.697 121.242 204.285 124.157 201.576C127.125 198.818 131.523 199.805 136.975 200.693C135.973 187.225 142.221 183.794 150.828 181.233C165.957 175.487 180.899 178.374 184.706 196.701C191.767 196.701 195.733 199.724 200.02 202.629C201.773 203.817 200.554 206.843 202.647 207.776C206.521 209.148 213.365 208.812 217.095 210.501C234.053 218.181 249.158 229.318 259.078 245.583C281.316 280.309 296.593 353.46 293.949 394.618C295.107 396.425 293.506 399.017 293.099 400.961C292.585 402.651 290.921 403.776 289.184 403.583C286.761 406.177 283.012 406.754 279.677 407.291Z" fill="white"/>
<path fill-rule="evenodd" clip-rule="evenodd" d="M113.07 218.318C113.317 218.181 113.099 217.829 112.851 217.945C100.914 223.518 91.756 233.295 85.3124 244.591C78.6402 256.288 74.8374 269.568 71.5589 282.548L71.4406 283.017C67.9446 296.902 64.9721 310.931 62.2959 324.994C59.5856 339.236 57.4101 353.565 55.6601 367.954C54.7943 375.069 54.0226 382.196 53.4205 389.337C53.1198 392.906 52.8465 396.477 52.601 400.05C52.5029 401.479 52.4105 402.908 52.3313 404.338L52.2744 405.411C52.2254 406.384 52.1093 407.36 52.3508 408.32C52.5594 409.147 52.9997 409.896 53.387 410.656C54.1529 412.158 56.2526 411.91 57.078 410.656L57.3177 410.291C57.865 409.449 58.3198 408.667 58.4915 407.619C58.6576 406.605 58.6637 405.542 58.7383 404.517C58.8754 402.632 58.9922 400.745 59.1253 398.859C59.4047 394.889 59.7187 390.922 60.0662 386.958C60.7536 379.132 61.4909 371.313 62.3964 363.508C64.0053 349.638 66.0242 335.805 68.4043 322.045C70.7297 308.604 73.6696 295.299 76.7365 282.01L77.0542 280.636C82.424 257.435 90.7001 230.716 113.07 218.318ZM240.218 309.167C240.13 308.935 239.753 308.881 239.689 309.167C238.885 312.769 238.805 316.48 238.682 320.169C238.561 323.807 238.566 327.462 238.619 331.103C238.816 344.483 239.185 357.853 239.504 371.231C239.664 377.923 239.814 384.616 239.928 391.308C239.972 393.819 240.008 396.329 240.039 398.839L240.076 402.15C240.094 403.614 240.133 405.06 240.312 406.522C240.431 407.484 240.683 408.401 241.216 409.225C241.595 409.811 242.135 410.108 242.661 410.505L242.759 410.581C243.43 411.109 244.137 411.112 244.802 410.581L244.995 410.429C245.629 409.935 246.178 409.549 246.583 408.768C247.147 407.682 247.237 406.502 247.333 405.305C247.479 403.49 247.382 401.648 247.364 399.828C247.326 396.176 247.275 392.526 247.211 388.874C246.974 375.485 246.507 362.094 245.656 348.729C245.255 342.433 244.711 336.118 243.982 329.848L243.843 328.673C243.622 326.828 243.42 324.95 243.192 323.067C246.587 320.691 249.57 317.808 252.115 314.538C252.302 314.298 251.994 313.96 251.767 314.193C249.168 316.872 246.187 319.007 242.887 320.686C242.346 316.743 241.603 312.821 240.218 309.167ZM183.512 189.816C183.465 189.78 183.393 189.765 183.348 189.816C182.619 190.662 182.767 191.957 182.743 193.029L182.74 193.129C182.688 194.697 182.678 196.261 182.683 197.83L182.7 202.824C182.702 203.511 182.758 204.226 182.722 204.917L182.704 205.184C182.321 205.575 182.143 206.139 182.273 206.706C182.296 207.433 182.678 208.04 183.235 208.421L182.041 210.108L180.845 211.793C178.381 215.271 175.889 218.719 173.292 222.101C170.645 225.55 167.82 228.869 164.864 232.06C163.42 233.619 161.951 235.157 160.448 236.66C159.838 237.271 159.212 237.867 158.593 238.469L157.977 239.075C157.613 239.437 157.155 239.795 156.914 240.254C156.772 240.525 156.739 241.192 156.688 241.302C156.232 242.299 157.01 243.89 158.303 243.392L158.244 243.353C158.009 243.19 158.16 243.188 158.697 243.346C159.036 243.345 159.354 243.268 159.651 243.114L159.739 243.066C160.157 242.854 160.53 242.445 160.87 242.118L160.954 242.038C161.731 241.314 162.471 240.546 163.216 239.789C164.769 238.209 166.288 236.597 167.758 234.94C170.691 231.636 173.472 228.198 176.105 224.652C178.788 221.042 181.281 217.246 183.425 213.294C184.239 211.794 184.984 210.265 185.7 208.719C187.092 208.274 187.415 206.801 187.318 205.141C187.831 203.951 188.294 202.737 188.568 201.496C188.605 201.325 188.385 201.165 188.254 201.314C187.808 201.817 187.396 202.353 187 202.903C186.761 201.739 186.458 200.668 186.316 199.986L185.699 196.972C189.176 196.792 192.987 198.214 195.384 200.703C195.513 201.351 196.014 201.815 196.503 202.42C197.061 203.113 197.548 203.89 197.912 204.703C198.717 206.505 198.263 209.159 199.826 210.481C199.989 210.619 200.171 210.714 200.359 210.773C199.617 214.394 199.954 218.383 199.97 222.055L199.971 222.378C199.967 226.489 200.105 230.603 200.265 234.71L200.427 238.775C200.637 244.196 200.774 249.619 200.245 255.011C197.828 252.88 195.328 250.847 192.743 248.911C191.043 247.637 189.309 246.408 187.544 245.226L186.109 244.272C184.39 243.125 182.63 241.945 180.747 241.124C178.286 240.05 175.945 240.419 173.568 241.52C171.201 242.618 168.905 243.892 166.584 245.081C164.222 246.291 161.856 247.49 159.491 248.692C157.925 249.488 155.63 250.207 154.481 251.673C154.408 251.349 154.322 251.025 154.222 250.703C154.336 250.212 154.292 249.681 154.015 249.175C150.155 242.116 146.583 234.889 143.036 227.671C141.241 224.018 139.534 220.321 137.735 216.67L135.987 213.115C135.695 212.522 135.402 211.93 135.107 211.339C134.666 210.455 134.206 209.578 133.76 208.696C133.572 208.323 133.335 207.952 133.152 207.576L133.065 207.387C133.061 207.377 132.637 206.052 132.964 206.178L132.993 206.192C133.159 206.286 133.293 206.077 133.185 205.943C132.722 205.374 132.078 205.878 131.814 206.405C131.086 207.856 132.419 210.132 132.932 211.521L132.96 211.599C134.551 216.081 136.353 220.479 138.199 224.862C141.739 233.264 145.542 241.538 149.336 249.826L149.381 249.968C148.572 249.351 147.708 248.791 146.968 248.246C145.102 246.87 143.181 245.562 141.264 244.259C137.747 241.868 134.135 239.635 130.463 237.49L129.728 237.062C127.894 235.999 126.077 235.137 123.9 235.456C121.878 235.752 119.997 236.833 118.17 237.712L117.981 237.802L112.335 240.473C112.939 238.078 113.592 235.694 114.274 233.32C115.604 228.688 117.067 224.095 118.654 219.544C120.136 215.291 121.738 211.085 123.432 206.912L123.943 205.66C124.633 203.942 125.32 202.068 127.295 201.539C129.269 201.01 131.532 201.794 133.336 200.675C133.5 200.573 133.479 200.304 133.281 200.255L132.168 199.976C130.078 199.458 127.628 198.938 125.652 199.441C123.502 199.989 121.723 201.785 120.68 203.652C119.52 205.728 118.702 208.052 117.822 210.267L117.682 210.616C116.672 213.122 115.7 215.643 114.771 218.18C112.912 223.251 111.219 228.383 109.687 233.561C108.949 236.057 108.249 238.564 107.576 241.078C107.382 241.801 107.063 242.677 106.801 243.592C106.501 243.883 106.217 244.208 105.95 244.579C105.508 245.194 105.826 245.915 106.375 246.283C106.397 246.912 106.537 247.504 106.873 248.011C108.184 249.991 111.65 249.481 111.509 246.819C111.488 246.411 111.328 246.022 111.086 245.694L111.093 245.64L111.121 245.543C111.722 245.256 112.326 244.936 112.963 244.623L118.889 241.709C120.605 240.865 122.507 239.562 124.415 239.24C126.194 238.94 128.072 240.259 129.6 241.055L129.7 241.106C133.395 242.991 137.063 244.938 140.717 246.902C142.501 247.861 144.261 248.859 146.038 249.829C147.524 250.64 149.127 251.805 150.797 252.263C151.51 252.814 152.357 252.741 153.038 252.323C152.727 254.241 152.746 256.209 152.651 258.17C152.522 260.791 152.503 263.419 152.46 266.044L152.443 267.028C152.331 272.83 152.271 278.634 152.249 284.438C152.17 305.105 152.399 325.777 152.453 346.444C152.48 356.827 152.687 367.22 152.958 377.599C153.073 381.998 153.313 386.39 153.573 390.782L153.716 393.177C154.018 398.231 154.196 403.341 155.136 408.327C155.259 408.978 156.365 408.994 156.474 408.327C157.339 402.985 157.387 397.525 157.554 392.119L157.589 391.039C157.789 385.235 157.883 379.435 157.863 373.629C157.789 352.954 157.249 332.292 156.807 311.623C156.585 301.238 156.436 290.849 156.091 280.467C155.918 275.273 155.723 270.082 155.491 264.889C155.388 262.571 155.288 260.255 155.133 257.94L155.063 256.948C155.015 256.301 154.977 255.662 154.929 255.028C157.032 255.792 158.954 254.378 160.845 253.41C163.025 252.294 165.203 251.177 167.384 250.063L169.566 248.952L173.933 246.734C175.899 245.736 177.414 244.742 179.511 245.913C187.067 250.131 194.01 255.744 200.302 261.633C201.508 262.762 204.058 262.459 204.364 260.566C205.669 252.479 204.875 244.276 204.209 236.165L203.963 233.154C203.665 229.557 203.341 225.96 202.909 222.378C202.715 220.776 202.523 219.175 202.31 217.575L202.146 216.376C201.88 214.481 201.706 212.596 201.139 210.778C201.318 210.721 201.49 210.626 201.644 210.481C203.35 208.87 202.528 206.075 201.749 204.159C200.98 202.268 199.808 200.617 198.34 199.196C198.02 198.886 197.568 198.686 197.115 198.676C193.555 196.329 189.651 195.158 185.586 196.439C185.472 195.896 185.356 195.354 185.233 194.813L185.109 194.272C184.793 192.93 184.675 190.714 183.512 189.816ZM147.031 401.736C145.927 401.433 144.717 401.752 143.908 402.557C143.099 403.363 142.778 404.566 143.083 405.665C143.235 406.206 143.51 406.676 143.908 407.075C144.28 407.442 144.714 407.704 145.209 407.862L145.325 407.896L145.505 407.971C146.059 408.119 146.613 408.119 147.166 407.971C147.695 407.823 148.155 407.557 148.545 407.171C148.932 406.783 149.2 406.326 149.348 405.799C149.497 405.248 149.497 404.697 149.348 404.146L149.273 403.967C149.121 403.426 148.846 402.956 148.448 402.557C148.047 402.162 147.575 401.887 147.031 401.736ZM81.4464 292.21C81.2649 292.003 80.9707 292.269 81.0834 292.489C82.8039 295.845 84.7215 299.178 86.6061 302.449C86.4551 303.355 86.3054 304.254 86.1332 305.131C85.399 308.867 84.4996 312.536 83.9133 316.307C81.8059 329.864 80.7119 343.569 79.7731 357.247C78.8315 370.975 78.7111 384.709 78.5697 398.464C78.5573 399.656 79.4789 401.041 80.7137 401.266C81.2791 401.369 81.7021 401.349 82.2662 401.266C83.5513 401.078 84.3551 399.613 84.4103 398.464C84.7788 390.776 85.2745 383.099 85.8488 375.423C86.8668 361.816 87.4888 348.173 88.3111 334.551L88.6007 329.79C88.9115 324.631 89.1958 319.469 89.2884 314.303C89.35 310.88 89.1661 307.458 89.2792 304.04C89.3836 300.883 89.7053 297.451 89.0059 294.35C88.98 294.234 88.7955 294.205 88.7422 294.316C88.015 295.839 87.5544 297.495 87.1995 299.184C85.3256 296.826 83.4173 294.463 81.4464 292.21ZM204.192 208.834C203.929 208.816 203.939 209.209 204.192 209.238C207.869 209.663 211.422 211.152 214.894 212.417L215.192 212.525C218.7 213.792 222.12 215.265 225.411 217.02C231.846 220.453 237.756 224.879 242.981 229.945C263.84 250.172 273.347 279.339 280.313 306.748C284.183 321.977 286.935 337.463 288.719 353.068C289.601 360.785 290.225 368.532 290.588 376.291C290.774 380.267 290.892 384.247 290.941 388.228C290.966 390.267 290.973 392.306 290.971 394.345C290.97 395.279 290.802 396.456 291.053 397.363C291.286 398.203 291.943 398.943 292.429 399.644C293.005 400.474 294.04 400.431 294.623 399.644L294.839 399.357C295.461 398.535 296.071 397.749 296.16 396.675C296.255 395.524 296.188 394.337 296.192 393.18C296.202 390.849 296.173 388.519 296.126 386.189C296.036 381.723 295.859 377.259 295.596 372.8C295.062 363.751 294.184 354.721 292.926 345.743C290.691 329.785 287.34 313.979 282.951 298.471C278.81 283.841 273.904 269.254 266.916 255.702C260.428 243.12 251.915 231.415 240.683 222.621C235.46 218.532 229.774 215.124 223.644 212.557C220.552 211.263 217.305 210.206 214.004 209.604C210.738 209.008 207.487 209.091 204.192 208.834ZM146.398 375.876C145.815 375.872 145.164 375.999 144.664 376.32L143.996 376.834C143.814 377.066 143.634 377.298 143.455 377.531C143.036 378.073 142.981 378.951 143.068 379.597C143.088 380.028 143.217 380.429 143.455 380.801L143.963 381.457C144.453 381.854 144.861 382.137 145.453 382.328C145.763 382.428 146.061 382.448 146.358 382.433L146.458 382.427L146.398 382.435L146.502 382.423C146.599 382.415 146.696 382.405 146.793 382.391C146.86 382.383 146.926 382.378 146.992 382.369C147.056 382.364 147.118 382.361 147.182 382.367C147.935 382.438 148.692 382.013 149.227 381.525C149.708 381.085 150.141 380.152 150.073 379.49L150.045 379.214C149.994 378.748 149.952 378.564 149.754 378.096C149.561 377.64 149.291 377.239 148.925 376.899C148.222 376.249 147.362 375.883 146.398 375.876ZM148.729 341.758C147.729 340.674 146.013 340.594 144.774 341.25C144.472 341.41 144.194 341.667 143.928 341.881C143.257 342.42 142.994 343.394 142.957 344.214C142.92 345.025 143.35 345.988 143.928 346.547L144.068 346.683C144.414 347.017 144.909 347.307 145.392 347.396C146.171 347.538 146.825 347.534 147.551 347.229C148.174 346.968 148.711 346.547 149.077 345.976L149.136 345.879C149.161 345.839 149.185 345.799 149.207 345.757L149.239 345.694C149.934 344.365 149.747 342.861 148.729 341.758ZM148.211 307.46C147.761 307.319 147.31 307.299 146.859 307.4C146.553 307.401 146.268 307.478 146.004 307.63C145.717 307.71 145.467 307.855 145.256 308.064C145.001 308.214 144.798 308.415 144.648 308.669C144.348 308.995 144.146 309.377 144.041 309.816L143.92 310.713L144.041 311.61L144.383 312.416C144.477 312.538 144.571 312.66 144.667 312.781C144.818 313.036 145.021 313.238 145.276 313.389C145.442 313.553 145.633 313.676 145.846 313.761C146.601 314.299 147.606 314.475 148.501 314.23C149.032 314.082 149.493 313.814 149.884 313.428C150.272 313.038 150.541 312.579 150.69 312.051L150.751 311.629C150.83 311.063 150.843 310.75 150.682 310.03C150.611 309.714 150.406 309.268 150.299 309.08C149.841 308.278 149.092 307.728 148.211 307.46ZM109.073 282.785C107.778 282.776 106.484 282.779 105.19 282.793L104.22 282.806C102.594 282.831 101.202 282.664 99.9247 283.786C98.9973 284.601 99.4058 285.967 100.286 286.58C101.62 287.509 103.293 287.042 104.826 286.94C106.443 286.832 108.061 286.742 109.68 286.67C112.814 286.53 115.949 286.442 119.087 286.428C122.217 286.415 125.353 286.444 128.483 286.494C131.668 286.546 134.984 286.841 138.152 286.513C138.587 286.468 138.685 285.899 138.255 285.75C135.271 284.723 131.913 284.39 128.785 283.997C125.559 283.592 122.333 283.305 119.087 283.119C115.752 282.928 112.413 282.808 109.073 282.785ZM148.217 272.694L148.11 272.696C147.541 272.698 147.008 272.831 146.51 273.096L146.404 273.155L145.72 273.681C145.302 274.101 145.012 274.595 144.852 275.165L144.731 276.059C144.713 276.522 144.81 276.953 145.022 277.354C145.158 277.771 145.391 278.132 145.72 278.437C146.027 278.765 146.389 278.996 146.808 279.132C147.18 279.326 147.578 279.424 148.004 279.424L148.11 279.422C148.72 279.42 149.289 279.267 149.816 278.963L150.5 278.437C150.919 278.017 151.209 277.523 151.369 276.953L151.49 276.059C151.507 275.596 151.41 275.164 151.198 274.763C151.062 274.346 150.829 273.985 150.5 273.681C150.194 273.353 149.831 273.121 149.412 272.986C149.04 272.791 148.642 272.694 148.217 272.694ZM138.198 193.695C137.47 192.646 136.151 193.579 136.339 194.423C136.29 196.793 136.168 199.092 135.626 201.413C135.378 202.476 135.053 203.54 134.552 204.513L134.341 204.923C133.692 206.199 133.188 207.402 134.062 208.801C134.474 209.461 135.219 209.957 136.026 209.922C139.604 209.768 140.096 204.812 140.313 202.045C140.538 199.195 139.84 196.063 138.198 193.695Z" fill="black"/>
<path fill-rule="evenodd" clip-rule="evenodd" d="M101.215 130.321C102.383 111.251 108.602 89.6296 126.904 80.2664C167.252 64.1528 220.302 104.732 223.11 146.186C224.09 160.376 216.172 175.882 201.703 179.827C198.487 184.068 193.622 186.658 188.82 188.906C131.629 218.433 94.6854 194.431 101.215 130.321Z" fill="white"/>
<path fill-rule="evenodd" clip-rule="evenodd" d="M88.1861 118.458C90.2073 112.872 92.3424 107.329 94.5884 101.829C96.7759 96.4758 98.7518 91.0071 101.468 85.9077C117.693 55.4512 147.196 55.4512 162.447 59.4307C170.356 56.0399 185.17 56.9963 193.405 60.0562C206.737 65.0097 222.989 84.4959 228.545 93.2508C240.814 112.581 248.47 138.309 240.321 160.646C239.255 163.565 237.897 166.269 236.368 168.874C237.331 170.174 238.44 171.404 239.668 172.614C243.319 176.207 246.969 179.683 250.122 183.736C253.256 187.765 255.854 192.048 257.788 196.771C261.435 205.678 261.61 215.764 256.789 224.263C252.595 231.658 245.164 237.164 236.793 237.689C236.363 237.749 235.933 237.804 235.5 237.847C234.391 239.665 233.039 241.339 231.495 242.798C226.766 247.274 215.492 249.571 209.062 249.718C208.733 249.982 208.4 250.245 208.067 250.506C204.133 253.587 200.004 256.696 195.488 258.888C192.428 260.375 188.417 261.617 185.225 260.544C183.777 261.506 181.401 261.304 179.966 260.516C177.606 259.222 175.686 256.892 174.518 254.507C171.687 248.715 172.368 242.378 173.095 236.191C173.896 229.357 174.666 222.52 175.449 215.687C176.062 210.343 176.703 204.91 178.336 199.762C179.18 197.095 180.286 194.532 181.716 192.122C181.679 191.92 181.685 191.717 181.743 191.527C182.212 190.013 183.179 189.219 184.325 188.189C184.473 188.057 184.621 187.922 184.766 187.784C185.339 187.134 185.952 186.53 186.608 186.018C186.861 185.764 187.11 185.506 187.36 185.248C189.433 183.087 191.393 180.815 193.134 178.381C194.822 176.02 196.347 173.555 197.798 171.044C199.274 168.49 200.251 165.673 201.724 163.137C201.85 162.92 202.17 162.877 202.349 163.058C202.805 163.527 203.098 164.048 203.042 164.597L203.27 164.63C203.356 163.803 204.124 163.128 205.165 163.309C206.724 163.579 208.006 163.68 209.355 163.165C209.118 161.598 208.899 160.029 208.683 158.456C208.289 155.562 207.922 152.658 207.608 149.755C206.847 149.936 206.092 150.196 205.353 150.527C204.299 150.996 203.304 151.628 202.454 152.404C201.616 153.17 201.036 154.203 200.014 154.737C198.837 155.347 197.416 154.338 197.761 153.014C198.461 150.337 202.42 148.804 204.869 148.298C205.71 148.124 206.57 148.05 207.43 148.068C207.235 146.204 207.063 144.34 206.921 142.473C206.853 141.59 206.792 140.707 206.733 139.821C204.829 139.248 202.79 139.076 200.808 139.346C200.155 139.864 199.502 140.376 198.871 140.894C196.865 142.544 194.868 144.202 192.897 145.892C192.718 146.042 192.542 146.192 192.363 146.345C191.193 147.348 189.732 146.355 189.93 144.935C191.538 133.303 184.378 124.05 175.994 116.882C166.714 108.945 149.843 108.02 138.807 94.2714C133.724 95.3008 122.376 98.3582 117.693 105.784C111.136 116.189 111.993 125.513 111.494 137.316C110.995 149.129 109.725 161.451 112.421 173.098C114.908 183.838 121.639 193.014 132.084 197.233C132.343 197.337 132.605 197.438 132.867 197.537C138.268 199.563 144.161 200.136 149.843 199.069C156.131 197.886 161.381 195.023 166.613 191.5C166.915 191.301 167.355 191.711 167.127 192.012C160.232 201.105 146.688 204.144 135.944 201.743C135.442 201.629 134.943 201.507 134.447 201.372C136.85 208.249 136.367 215.797 133.236 222.493C131.354 226.521 128.482 230.007 124.985 232.757C121.131 235.786 116.349 238.233 113.675 242.485C111.226 246.382 111.953 250.76 116.146 253.011C117.203 253.581 117.61 255.423 116.562 256.233C116.161 256.539 115.761 256.852 115.351 257.159C113.003 258.922 106.555 262.233 105.511 262.355C96.2368 263.45 90.0008 256.674 86.0048 248.682C81.3125 239.3 82.5325 227.867 87.7024 218.933C91.8494 211.765 100.017 204.701 96.7698 195.63C95.6113 192.389 93.242 189.627 90.9405 187.131C88.3155 184.289 85.4934 181.628 82.9762 178.684C80.4744 175.763 78.2561 172.583 77.0176 168.916C75.209 163.557 76.1087 157.763 77.4674 152.413C80.3789 140.928 84.1593 129.597 88.1861 118.458Z" fill="black"/>
<path fill-rule="evenodd" clip-rule="evenodd" d="M140.132 178.417C142.203 177.576 144.051 176.173 145.402 174.382C145.872 173.759 145.994 173.101 145.895 172.5C145.784 171.823 145.382 171.21 144.834 170.799C144.284 170.387 143.596 170.183 142.93 170.287C142.352 170.377 141.777 170.692 141.321 171.345L141.226 171.476C140.423 172.557 139.376 173.444 138.184 174.016C137.034 174.567 135.749 174.825 134.418 174.675C131.885 174.39 130.138 173.027 128.282 171.175C128.052 170.941 127.822 170.7 127.59 170.455C127.444 170.233 127.242 170.09 127.016 170.015C126.766 169.932 126.484 169.937 126.225 170.027C125.975 170.114 125.752 170.278 125.602 170.497C125.46 170.705 125.379 170.962 125.405 171.257C125.575 173.176 126.583 174.889 128.015 176.233C129.606 177.727 131.714 178.76 133.699 179.123C135.886 179.522 138.114 179.236 140.132 178.417ZM132.668 148.813C130.341 150.22 126.796 153.501 129.299 156.99C132.245 160.066 136.487 156.539 138.577 154.944C140.515 153.708 142.693 156.887 140.895 158.331C125.79 169.459 119.661 149.181 131.491 147.158C132.793 146.935 133.277 148.377 132.668 148.813ZM159.734 135.868C159.477 132.693 154.618 131.972 154.134 135.114C153.702 137.928 154.211 140.514 155.485 143.048C156.702 145.469 159.762 144.339 159.993 142.135C160.304 139.18 159.894 137.843 159.734 135.868ZM122.743 134.463C122.065 133.58 121.087 132.977 119.915 133.317C116.253 134.382 117.333 139.555 118.619 142.073C119.318 143.441 121.576 143.787 122.597 142.583C124.261 140.62 125.057 136.699 122.942 134.765C122.885 134.665 122.821 134.564 122.743 134.463ZM155.537 121.975L154.958 121.874C153.169 121.566 150.944 121.27 149.678 122.702C149.007 123.461 148.776 124.872 149.678 125.598C151.266 126.877 153.02 126.381 154.923 126.49C156.49 126.579 157.997 126.837 159.507 127.267C162.82 128.209 165.519 129.929 168.348 131.818C168.719 132.065 169.098 131.593 168.921 131.247C167.288 128.064 164.123 125.449 160.952 123.855C159.26 123.004 157.409 122.299 155.537 121.975ZM126.081 120.549L125.638 120.639C120.82 121.641 114.561 123.643 112.279 128.352C112.193 129.018 112.284 129.161 112.359 129.254L112.384 129.285C112.446 129.364 112.495 129.474 112.785 129.565C112.865 129.546 112.946 129.526 113.029 129.504C114.074 129.231 114.902 128.856 115.703 128.466L116.571 128.04C117.579 127.548 118.596 127.075 119.673 126.725C121.972 125.979 124.337 125.453 126.738 125.172C127.259 125.112 127.76 124.937 128.155 124.637C128.531 124.353 128.817 123.959 128.948 123.436C129.117 122.758 129.069 122.246 128.704 121.635C128.429 121.176 128.036 120.858 127.585 120.675C127.125 120.489 126.601 120.445 126.081 120.549Z" fill="black"/>
</svg>
