<svg width="324" height="467" viewBox="0 0 324 467" fill="none" xmlns="http://www.w3.org/2000/svg">
<path fill-rule="evenodd" clip-rule="evenodd" d="M251.403 318.475C256.494 331.17 262.587 345.58 268.192 357.946C267.744 361.864 266.059 365.871 267.377 369.794C261.567 366.021 255.035 363.652 248.367 361.862L247.992 364.369C247.25 364.345 245.912 364.332 245.161 364.322C245.278 363.325 245.436 361.547 245.508 360.542L245.511 360.543C246.441 349.737 244.703 338.675 242.581 328.115C242.064 324.305 243.327 318.386 248.137 318.289C248.852 318.397 250.029 316.467 250.463 316.092L251.403 318.475ZM184.135 464.514C208.369 465.871 222.225 446.074 233.941 427.553C235.174 428.369 236.541 429.281 237.786 430.018C239.703 433.093 243.604 434.025 246.971 434.366C258.974 434.978 261.545 424.217 264.525 414.96C265.092 415.358 266.362 417.381 267.316 416.937C272.706 415.745 277.954 414.319 283.668 414.675C290.227 413.277 324.213 428.222 321.076 415.188C319.544 409.52 311.112 406.835 306.77 402.922C300.455 395.749 301.992 386.52 298.976 377.978C296.468 369.409 293.537 361.336 288.114 353.459C287.624 324.015 286.52 287.98 278.886 261.795C274.018 243.418 267.988 224.419 270.306 205.136L271.622 205.101C272.198 204.775 273.083 204.529 273.79 204.637C274.386 203.979 275.491 204.179 276.301 203.913C277.761 190.293 278.324 178.636 276.471 166.28C274.75 145.878 261.855 137.533 243.02 133.09C222.322 126.311 208.278 119.403 197.553 102.548C195.525 99.1272 194.292 95.0773 191.59 92.1932C184.88 83.7138 165.582 85.1117 160.598 94.0399C158.421 99.2629 158.234 105.359 156.578 110.789C150.07 133.851 120.134 131.135 104.286 143.744C97.3091 148.91 95.061 156.885 94.1567 165.002C93.0169 175.21 90.8399 185.04 91.1192 195.186C90.391 195.323 88.7244 194.806 88.442 195.848C89.105 198.039 97.6035 198.032 99.9736 198.419C96.8561 214.901 99.6833 231.451 97.1777 247.986C93.3154 266.562 85.7159 283.814 79.7476 301.761C77.4506 307.692 75.9125 314.05 72.4956 319.451L72.5572 319.498C72.0168 320.394 71.4243 321.265 70.809 322.104C70.176 322.332 69.5158 322.704 68.8908 322.932L68.7518 322.698L68.4143 323.15L67.4227 322.732C65.9661 323.459 64.3842 324.301 62.8304 325.186C43.7339 336.756 31.2372 348.497 16.2649 363.035L18.2513 364.643C17.5283 365.648 16.6524 366.978 15.9499 368.037C15.3636 367.52 14.112 366.65 13.3908 366.351C0.624726 381.503 -0.936224 407.767 5.28137 423.733C7.25909 428.517 10.3879 432.445 14.1666 435.754C15.7271 438.096 18.5316 441.33 22.1154 442.884C22.1154 442.884 22.5674 443.522 22.5825 443.544C22.7739 443.57 23.9475 443.838 24.0162 444.111C33.5558 445.717 43.1217 449.909 53.007 449.97C69.1299 449.829 82.9839 436.76 95.9153 428.129C104.095 422.305 113.627 418.304 122.46 414.41C121.801 417.767 121.989 418.918 125.645 420.188C128.901 421.481 132.819 420.47 135.848 419.048C135.769 424.612 135.325 430.169 135.478 436.103C135.479 443.287 135.239 452.12 142.992 455.436C156.195 460.628 171.112 464.358 184.135 464.514Z" fill="white"/>
<path fill-rule="evenodd" clip-rule="evenodd" d="M16.0012 365.964C16.4603 365.273 16.9297 364.589 17.4119 363.913C16.8425 364.53 16.2808 365.158 15.7345 365.793C15.8294 365.841 15.9191 365.9 16.0012 365.964ZM69.126 321.519C69.2157 321.452 69.3158 321.393 69.4312 321.347C69.6979 321.237 69.9647 321.122 70.2314 321.012C70.7367 320.313 71.2112 319.596 71.6549 318.863C70.7264 319.831 69.7851 320.771 68.7695 321.652C68.8874 321.608 69.008 321.565 69.126 321.519ZM77.8694 317.783C82.1988 315.481 86.5615 313.24 90.9345 311.043C91.3115 310.854 91.6783 310.859 91.9886 310.984C93.8686 310.019 95.7589 309.066 97.6697 308.162C98.8315 307.614 100.004 307.097 101.171 306.575C101.26 306.442 101.342 306.303 101.412 306.155C102.112 304.662 101.448 302.808 100.996 301.341C100.881 300.972 100.93 300.652 101.076 300.401C100.83 298.258 100.922 296.102 101.345 294.158C102.35 289.528 104.836 285.308 107.2 281.26C109.629 277.104 111.758 272.93 113.135 268.303C115.903 259.016 116.116 249.293 115.916 239.683C115.695 229.007 115.077 218.334 114.649 207.667C114.52 204.486 114.395 201.306 114.292 198.123C114.043 198.272 113.843 198.425 113.471 198.535C112.866 198.712 112.248 198.858 111.635 199.001C110.412 199.288 109.17 199.488 107.926 199.659C105.587 199.982 103.256 200.128 100.896 200.095C100.606 200.09 100.317 200.082 100.029 200.072C101.394 206.983 101.307 214.301 101.432 221.287C101.581 229.366 101.976 237.524 101.076 245.575C100.196 253.444 97.8672 260.957 95.3254 268.426C92.7093 276.113 90.0163 283.777 87.4746 291.487C86.0408 295.838 84.602 300.189 83.1606 304.537C82.4681 306.631 81.773 308.726 81.0805 310.818C80.3213 313.11 79.9417 315.806 78.0181 317.409C77.8053 317.586 77.5667 317.721 77.3103 317.816C77.2667 317.906 77.2256 317.993 77.1795 318.082C77.4103 317.983 77.6385 317.883 77.8694 317.783ZM106.518 300.565C106.821 301.981 107.334 303.382 108.034 304.47C108.034 304.593 108.06 304.723 108.121 304.857C108.819 306.375 110.486 307.259 111.927 307.942C113.664 308.767 115.457 309.476 117.208 310.27C119.83 311.455 122.517 312.377 125.272 313.035C125.323 313.056 125.375 313.079 125.429 313.099C129.914 314.897 134.508 316.415 139.166 317.709C148.604 320.333 158.291 322.01 168.022 323.106C177.448 324.167 186.943 324.773 196.422 325.06C205.027 325.324 213.768 325.135 222.252 323.565C228.328 322.441 234.299 320.582 239.775 317.757C240.216 317.066 240.834 316.474 241.353 315.826C241.288 314.784 241.919 313.622 242.873 313.253C243.243 312.431 243.533 311.576 243.738 310.697C243.515 308.547 243.215 306.406 242.776 304.255C241.912 300.04 240.783 295.884 239.649 291.736C237.285 283.078 235.394 274.449 235.079 265.448C234.758 256.332 235.677 247.247 236.933 238.231C238.208 229.076 239.739 219.955 241.383 210.862C242.317 205.692 243.217 200.512 244.205 195.35C245.202 190.129 245.99 184.805 247.29 179.648C247.331 179.481 247.603 179.512 247.595 179.691C247.416 184.326 246.775 188.971 246.326 193.588C246.01 196.827 245.669 200.061 245.323 203.296C246.026 203.134 246.785 203.229 247.605 203.244C248.952 203.273 250.299 203.257 251.645 203.265C254.336 203.275 257.029 203.288 259.722 203.301C264.351 203.321 268.999 203.39 273.62 203.723C273.905 203.654 274.192 203.585 274.482 203.498C275.588 203.165 275.941 202.376 276.013 201.273C276.2 198.502 275.803 195.629 275.754 192.848C275.703 189.893 275.721 186.938 275.813 183.986C275.872 182.052 275.682 179.681 276.801 178.001C276.693 176.47 276.562 174.939 276.401 173.413C275.795 167.682 274.762 161.925 272.984 156.433C271.699 152.464 269.591 148.823 266.559 145.929C260.612 140.26 252.386 138.017 244.702 135.768C235.415 133.049 226.161 129.7 217.787 124.793C217.89 125.016 217.826 125.308 217.523 125.369C217.036 125.469 216.677 125.733 216.41 126.094C216.292 126.693 216.117 127.285 215.881 127.864C215.833 127.981 215.771 128.086 215.702 128.178C215.584 129.041 215.571 129.925 215.51 130.547C215.304 132.657 214.922 134.718 214.343 136.757C213.176 140.856 211.347 144.797 208.931 148.313C204.078 155.365 196.833 160.75 188.51 162.927C180.108 165.121 170.79 164.202 163.236 159.808C156.25 155.744 150.835 149.017 149.25 141.018C148.407 136.767 148.543 132.439 149.338 128.194C149.466 127.513 149.607 126.814 149.766 126.109C144.439 130.68 137.606 133.484 131.015 135.648C123.969 137.96 116.747 139.86 110.327 143.694C107.37 145.458 104.564 147.655 102.509 150.449C99.96 153.916 98.8597 157.951 98.1698 162.146C97.2439 167.779 96.5694 173.464 95.9333 179.136C95.6153 181.988 95.3203 184.846 95.051 187.704C94.9099 189.217 94.774 190.73 94.6483 192.246C94.556 193.317 94.4534 194.169 94.1046 194.981C96.1205 195.519 98.1621 195.923 100.219 196.287C102.648 196.72 105.12 196.971 107.583 197.122C108.852 197.199 110.124 197.224 111.396 197.245C112.03 197.255 112.664 197.24 113.297 197.245C113.659 197.247 113.954 197.345 114.269 197.409C113.987 188.403 113.895 179.389 114.441 170.396C114.454 170.168 114.823 170.086 114.864 170.34C116.67 180.915 117.624 191.647 118.357 202.343C119.078 212.831 119.835 223.32 120.471 233.816C121.053 243.46 121.271 253.198 119.622 262.757C118.816 267.422 117.488 271.947 115.603 276.292C113.746 280.576 111.122 284.448 108.986 288.589C107.031 292.381 105.644 296.514 106.518 300.565ZM119.904 397.858C123.715 396.754 127.312 395.17 130.862 393.41C134.287 391.713 137.919 389.904 140.821 387.398C140.884 387.344 140.817 387.23 140.739 387.257C137.16 388.533 133.769 390.427 130.282 391.952C126.66 393.537 122.956 394.924 119.321 396.476C118.516 396.82 119.104 398.09 119.904 397.858ZM127.534 416.548C128.47 417.178 129.499 417.749 130.566 418.12C132.015 418.629 133.482 418.76 134.941 418.612C135.159 415.987 135.426 413.362 135.747 410.745C132.461 412.399 129.024 413.774 125.593 415.152C126.272 415.559 126.857 416.089 127.534 416.548ZM140.993 403.024C141.092 404.085 142.507 404.061 142.628 403.024C143.178 398.332 143.453 393.6 143.926 388.898C144.763 380.561 146.147 372.354 148.051 364.195C148.532 362.134 149.033 360.08 149.587 358.038C149.875 356.979 150.852 355.119 150.195 354.036C149.386 352.704 148.267 354.589 149.131 354.697C149.219 354.707 149.218 354.582 149.15 354.555C149.822 354.822 149.355 355.425 149.179 355.902C149.009 356.361 148.835 356.819 148.667 357.279C148.33 358.197 148.001 359.119 147.682 360.043C146.99 362.045 146.341 364.058 145.767 366.097C144.645 370.084 143.659 374.119 142.9 378.191C141.387 386.311 140.229 394.756 140.993 403.024ZM237.657 427.187C238.198 426.908 238.849 426.808 239.424 426.923C241.317 427.3 242.068 428.393 243.692 429.215C244.646 429.699 246.295 430.101 247.295 430.163C248.96 430.263 249.922 430.147 251.448 429.663C252.558 429.31 253.769 428.654 254.595 427.894C256.793 425.874 257.878 423.077 258.839 420.238C259.899 417.106 260.809 413.867 262.44 410.971C263.261 409.516 264.302 408.11 265.544 406.986C266.724 405.918 268.624 405.142 269.427 403.726C270.255 402.267 270.325 400.152 270.571 398.51C270.817 396.864 270.997 395.207 271.114 393.548C271.574 387.09 271.143 380.007 267.542 374.409C263.02 367.385 254.833 365.347 247.244 363.381C247.128 364.589 246.99 365.795 246.823 366.999C246.621 368.474 246.374 369.944 246.09 371.406C247.457 372.497 248.66 373.89 249.498 374.909C251.537 377.39 253.058 380.219 254.107 383.251C255.118 386.173 255.615 389.271 255.526 392.362C255.479 393.899 255.243 395.397 254.81 396.871C254.689 397.279 254.546 397.719 254.374 398.162C254.91 399.092 255.01 400.293 254.387 401.202C248.819 409.321 243.25 417.439 237.682 425.559C237.426 425.932 237.169 426.309 236.913 426.685C237.164 426.844 237.41 427.013 237.657 427.187ZM247.282 362.968C247.67 362.973 248.057 362.984 248.447 362.994C248.067 362.889 247.688 362.784 247.308 362.679C247.3 362.776 247.293 362.871 247.282 362.968ZM247.505 360.077C250.955 361.02 254.4 361.99 257.742 363.268C259.696 364.016 262.002 364.82 263.956 366C264.533 366.274 265.095 366.571 265.644 366.896C265.567 366.492 265.569 366.064 265.667 365.634C266.118 363.619 266.454 361.58 266.831 359.55C266.872 359.332 266.921 358.892 267.003 358.385C266.634 357.716 266.357 356.989 266.044 356.264C265.474 354.951 264.905 353.635 264.333 352.321C263.261 349.845 262.189 347.369 261.117 344.895C258.919 339.822 256.731 334.737 254.623 329.626C253.194 326.159 251.763 322.689 250.386 319.199C250.004 319.647 249.411 319.954 248.606 319.985C244.72 320.123 244.205 325.255 244.525 328.105C244.769 330.274 245.351 332.407 245.759 334.55C246.174 336.739 246.518 338.939 246.816 341.146C247.654 347.423 247.895 353.768 247.505 360.077ZM280.032 411.073C284.739 410.799 289.478 411.25 294.075 412.284C298.517 413.283 302.833 414.776 307.281 415.769C309.448 416.253 311.641 416.586 313.867 416.637C314.937 416.66 316.016 416.632 317.081 416.512C317.214 416.496 317.384 416.45 317.555 416.407C317.25 415.472 316.704 414.686 315.922 413.9C314.834 412.807 313.918 412.202 312.567 411.337C309.846 409.595 307.011 408.018 304.757 405.662C301.872 402.643 300.505 398.771 299.792 394.728C299.027 390.396 298.535 386.017 297.801 381.679C297.199 378.097 296.506 374.514 295.657 370.975C294.662 367.859 293.364 364.843 291.889 361.908C290.758 359.66 289.507 357.483 288.286 355.286C287.265 356.231 285.742 356.057 284.877 354.836C284.477 354.27 284.003 353.722 283.815 353.041C283.636 352.393 283.695 351.645 283.69 350.982C283.679 349.735 283.669 348.488 283.659 347.238C283.636 344.66 283.608 342.078 283.572 339.5C283.502 334.507 283.4 329.513 283.231 324.52C282.889 314.48 282.343 304.444 281.21 294.458C278.986 274.851 273.338 255.861 270.904 236.287C270.604 233.88 270.342 231.445 270.15 228.992C269.091 221.466 268.909 213.828 269.622 206.245C261.355 206.174 253.092 206.589 244.871 207.487C243.879 216.708 242.745 225.904 241.573 235.099C240.424 244.095 239.439 253.167 239.544 262.247C239.596 266.716 239.901 271.194 240.637 275.604C241.347 279.865 242.427 284.051 243.576 288.212C244.73 292.384 245.972 296.534 246.99 300.742C248.534 304.608 250.214 308.418 251.943 312.206C256.303 321.76 260.812 331.242 265.082 340.836C266.313 343.607 267.531 346.383 268.757 349.156C269.37 350.544 269.983 351.932 270.596 353.317C271.286 354.879 272.179 356.403 272.171 358.149C272.166 359.191 271.545 359.947 270.737 360.282C271.081 362.297 271.194 364.341 271.217 366.384C271.23 367.603 270.427 368.607 269.365 368.999C269.368 369.262 269.376 369.524 269.388 369.787C269.404 369.803 269.419 369.818 269.435 369.831C275.008 375.459 276.524 383.62 276.477 391.253C276.454 395.245 276.047 399.271 275.364 403.201C274.946 405.614 273.892 407.603 271.958 409.129C270.591 410.207 269.037 411.25 268.147 412.561C267.965 412.832 267.793 413.106 267.629 413.385C271.45 411.785 276.013 411.306 280.032 411.073ZM216.577 124.063C216.582 124.248 216.582 124.435 216.577 124.619C216.81 124.555 217.056 124.519 217.328 124.522C217.074 124.373 216.828 124.215 216.577 124.063ZM1.24847 395.391C1.86146 389.763 2.78735 384.099 4.79559 378.783C6.64225 373.895 9.40455 369.483 12.6952 365.439C16.0064 361.37 19.8023 357.729 23.6879 354.213C27.7865 350.506 31.9415 346.851 36.1349 343.251C44.391 336.163 53.0036 329.378 62.4857 324.01C62.4883 324.005 62.4908 324 62.496 323.995C62.5114 323.987 62.5268 323.982 62.5447 323.975C64.0862 323.104 65.6507 322.264 67.2408 321.473C67.6281 321.281 68 321.294 68.3155 321.427C68.3232 321.416 68.3283 321.404 68.3386 321.396C69.4748 320.333 70.67 319.386 71.9062 318.443C72.9296 316.695 73.7862 314.853 74.4402 312.915C74.5044 312.726 74.6069 312.572 74.7275 312.441C74.984 311.74 75.2712 311.043 75.5252 310.344C76.2177 308.426 76.8948 306.503 77.5796 304.583C78.9492 300.742 80.3162 296.898 81.6909 293.06C84.4378 285.385 87.077 277.673 89.7393 269.968C92.24 262.731 94.8048 255.464 96.0744 247.892C97.3901 240.056 97.09 231.993 97.1952 224.08C97.2542 219.512 97.2824 214.931 97.5183 210.371C97.6979 206.883 97.9287 203.406 98.5622 199.987C96.7745 199.857 94.9946 199.618 93.23 199.314C91.2884 198.976 87.2335 198.73 87.3181 195.959C87.3515 194.915 88.1517 194.187 89.1212 193.921C89.3469 193.857 89.5752 193.831 89.806 193.829C89.6008 192.082 90.0291 190.188 90.1958 188.462C90.4472 185.855 90.719 183.248 91.014 180.646C91.6065 175.402 92.2887 170.166 93.0479 164.942C93.7378 160.2 94.4431 155.429 96.6643 151.114C98.3519 147.834 100.858 144.979 103.746 142.7C115.754 133.223 131.997 132.987 144.621 124.737C147.886 122.601 150.807 119.931 152.918 116.632C154.124 114.745 154.931 112.712 155.506 110.553C155.878 109.16 156.227 107.798 156.673 106.428C157.112 105.089 157.235 103.99 158.063 102.81C158.153 102.682 158.345 102.728 158.355 102.887C158.435 104.106 158.214 105.176 158.153 106.39C158.091 107.655 158.132 108.902 158.004 110.174C157.973 110.495 157.935 110.815 157.896 111.132C157.94 111.209 157.976 111.293 158.004 111.386C158.591 113.255 158.271 115.28 157.273 116.896C157.286 117.065 157.273 117.237 157.227 117.408C156.724 119.275 155.811 121.001 155.129 122.811C154.483 124.53 153.934 126.286 153.508 128.073C152.705 131.446 152.392 134.913 152.728 138.37C153.452 145.78 157.855 152.095 164.021 156.118C170.867 160.584 179.548 161.695 187.428 159.759C195.463 157.785 202.108 152.664 206.802 145.952C209.41 142.224 211.406 138.037 212.65 133.663C213.127 131.986 213.409 130.224 213.866 128.534C213.419 128.291 213.15 127.812 213.409 127.182C214.086 125.533 214.194 123.907 213.694 122.217C209.136 119.134 204.902 115.529 201.293 111.375C197.705 107.245 193.986 102.229 192.437 96.923C191.829 94.8386 194.96 93.4456 195.997 95.425C197.13 97.5888 198.059 99.8191 199.297 101.934C200.541 104.065 201.965 106.088 203.542 107.985C206.682 111.765 210.331 115.14 214.317 118.018C223.204 124.435 233.476 128.557 243.892 131.781C251.958 134.278 260.396 136.455 267.093 141.863C274.477 147.826 277.019 157.204 278.406 166.207C278.994 170.015 279.335 173.845 279.489 177.689C279.65 177.996 279.689 178.357 279.524 178.695C279.753 185.906 279.337 193.148 278.647 200.328C278.65 201.088 278.593 201.839 278.424 202.55C278.342 203.342 278.257 204.133 278.17 204.922C278.15 205.121 278.052 205.257 277.862 205.326C277.134 205.587 276.406 205.744 275.67 205.792C275.544 205.836 275.416 205.874 275.287 205.91C275.082 206.174 274.759 206.35 274.315 206.338C274.061 206.33 273.808 206.325 273.556 206.317C273.266 206.399 272.984 206.499 272.717 206.64C272.517 206.745 272.32 206.791 272.133 206.796C271.81 210.46 271.697 214.135 271.792 217.799C272.076 222.959 272.715 228.096 273.723 233.24C275.593 242.786 278.309 252.163 280.789 261.563C285.908 280.95 288.276 300.783 289.191 320.781C289.45 326.433 289.573 332.094 289.666 337.751C289.712 340.498 289.745 343.244 289.773 345.991C289.786 347.405 289.799 348.818 289.812 350.234C289.82 350.895 289.866 351.571 289.822 352.229C289.812 352.393 289.789 352.544 289.761 352.692C289.763 352.697 289.766 352.703 289.768 352.71C292.451 356.359 294.495 360.569 296.285 364.71C298.117 368.94 299.674 373.288 300.876 377.738C302.082 382.196 302.957 386.698 303.798 391.235C304.501 395.018 305.316 399.209 308.24 401.965C310.448 404.044 313.526 405.445 316.134 407.132C319.11 409.058 321.774 411.411 322.947 414.852C323.762 417.239 323.367 419.977 320.951 421.226C318.871 422.301 315.922 422.22 313.636 422.115C308.807 421.889 304.108 420.583 299.481 419.272C294.395 417.831 289.355 416.514 284.041 416.371C281.379 416.299 278.688 416.425 276.057 416.84C273.323 417.267 270.702 418.179 267.98 418.614C267.075 418.763 266.17 418.571 265.567 417.956C263.836 422.842 262.843 428.165 258.875 431.932C255.823 434.826 251.483 436.303 247.295 436.06C245.036 435.927 242.891 435.376 240.855 434.388C239.88 433.914 239.001 433.302 238.157 432.623C237.639 432.209 237.277 431.761 237.026 431.264C236.267 430.803 235.518 430.327 234.779 429.837C230.601 436.039 226.448 442.293 221.783 448.123C216.505 454.719 210.131 460.115 202.188 463.193C194.783 466.061 186.591 466.627 178.735 465.958C170.446 465.251 162.3 463.369 154.352 460.967C150.469 459.795 146.437 458.712 142.754 456.988C138.822 455.15 136.101 451.913 135.177 447.652C134.269 443.463 134.377 438.984 134.346 434.721C134.316 430.321 134.423 425.912 134.721 421.523C134.723 421.51 134.723 421.5 134.723 421.487C133.277 422.071 131.705 422.381 130.153 422.46C128.593 422.54 126.973 422.342 125.511 421.784C123.767 421.121 121.356 420.028 121.038 417.956C120.989 417.654 120.986 417.334 121.025 417.019C119.963 417.467 118.906 417.928 117.865 418.412C114.602 419.923 111.35 421.464 108.149 423.1C106.549 423.917 104.977 424.816 103.351 425.582C102.915 425.787 102.476 426.014 102.032 426.245C100.414 427.323 98.811 428.424 97.2157 429.546C92.7042 432.718 88.2466 435.965 83.7146 439.105C79.0543 442.334 74.3043 445.522 69.1362 447.888C63.8322 450.318 58.1948 451.864 52.3188 451.647C46.0479 451.416 39.936 449.647 33.8984 448.092C30.8822 447.319 27.866 446.544 24.8498 445.767C24.4292 445.954 23.9188 445.926 23.493 445.509C23.452 445.468 23.4109 445.427 23.3699 445.386C22.9365 445.276 22.503 445.163 22.0695 445.053C21.8798 444.792 21.6951 444.525 21.5078 444.262C18.1916 442.7 15.4139 439.891 13.3056 436.774C13.1466 436.639 12.985 436.508 12.8286 436.37C9.09933 433.102 6.21649 429.049 4.28006 424.493C0.409772 415.388 0.19434 405.091 1.24847 395.391Z" fill="black"/>
<path fill-rule="evenodd" clip-rule="evenodd" d="M127.185 59.6933C128.136 44.1179 133.197 26.4594 148.093 18.8122C180.932 5.65168 224.109 38.7936 226.395 72.6507C227.192 84.2402 220.748 96.9042 208.972 100.126C206.354 103.59 202.394 105.706 198.486 107.541C151.938 131.657 121.871 112.054 127.185 59.6933Z" fill="white"/>
<path fill-rule="evenodd" clip-rule="evenodd" d="M116.581 50.0045C118.226 45.4423 119.964 40.915 121.792 36.4229C123.572 32.0509 125.18 27.5844 127.391 23.4196C140.596 -1.45515 164.609 -1.45515 177.022 1.79504C183.459 -0.974387 195.515 -0.193202 202.218 2.30585C213.069 6.35157 226.296 22.2665 230.818 29.4169C240.803 45.2044 247.035 66.2172 240.402 84.4603C239.535 86.8447 238.43 89.0529 237.185 91.1811C237.969 92.2423 238.871 93.2474 239.871 94.235C242.842 97.1701 245.813 100.009 248.38 103.319C250.93 106.609 253.045 110.108 254.619 113.965C257.587 121.24 257.73 129.477 253.806 136.418C250.392 142.458 244.344 146.955 237.531 147.384C237.181 147.433 236.831 147.477 236.479 147.513C235.576 148.998 234.475 150.365 233.219 151.557C229.37 155.213 220.195 157.088 214.961 157.208C214.693 157.424 214.422 157.639 214.151 157.852C210.949 160.368 207.589 162.907 203.913 164.698C201.423 165.912 198.158 166.926 195.56 166.05C194.382 166.836 192.448 166.671 191.28 166.027C189.359 164.971 187.797 163.068 186.846 161.12C184.542 156.389 185.096 151.214 185.688 146.161C186.34 140.579 186.967 134.995 187.604 129.414C188.103 125.049 188.624 120.612 189.953 116.408C190.64 114.23 191.54 112.136 192.704 110.168C192.674 110.003 192.679 109.838 192.727 109.682C193.108 108.445 193.895 107.797 194.828 106.956C194.948 106.848 195.069 106.738 195.187 106.625C195.653 106.094 196.152 105.601 196.686 105.183C196.892 104.975 197.095 104.765 197.298 104.554C198.986 102.789 200.58 100.933 201.997 98.9452C203.371 97.0171 204.613 95.0039 205.794 92.9532C206.995 90.8673 207.79 88.5662 208.988 86.4953C209.091 86.3176 209.352 86.2825 209.497 86.4302C209.868 86.8133 210.107 87.239 210.062 87.6872L210.247 87.7148C210.317 87.0387 210.942 86.4878 211.789 86.6356C213.058 86.8559 214.101 86.9386 215.2 86.5179C215.007 85.2383 214.828 83.9563 214.653 82.6717C214.332 80.308 214.034 77.9367 213.778 75.5654C213.158 75.7131 212.544 75.926 211.942 76.1964C211.085 76.5795 210.275 77.0953 209.583 77.7288C208.901 78.3548 208.429 79.1987 207.597 79.6344C206.639 80.1327 205.483 79.3089 205.764 78.2271C206.333 76.0411 209.555 74.7891 211.549 74.376C212.233 74.2333 212.933 74.1732 213.632 74.1882C213.474 72.6658 213.334 71.1433 213.219 69.6184C213.163 68.8972 213.113 68.1761 213.066 67.4524C211.516 66.9842 209.856 66.8439 208.244 67.0643C207.712 67.4875 207.18 67.9057 206.666 68.3288C205.034 69.676 203.409 71.0306 201.804 72.4103C201.659 72.533 201.516 72.6557 201.37 72.7809C200.417 73.5997 199.229 72.7884 199.389 71.6291C200.698 62.1289 194.871 54.5718 188.047 48.7175C180.495 42.2346 166.763 41.4798 157.781 30.2505C153.644 31.0912 144.408 33.5883 140.596 39.653C135.26 48.1516 135.957 55.7663 135.551 65.4067C135.145 75.0546 134.112 85.1181 136.306 94.6308C138.329 103.402 143.809 110.897 152.309 114.342C152.52 114.427 152.733 114.51 152.946 114.59C157.342 116.245 162.139 116.714 166.763 115.842C171.881 114.876 176.154 112.537 180.412 109.66C180.658 109.497 181.016 109.833 180.831 110.078C175.219 117.505 164.195 119.986 155.451 118.026C155.043 117.933 154.636 117.833 154.233 117.723C156.188 123.339 155.795 129.504 153.247 134.973C151.715 138.263 149.378 141.11 146.532 143.356C143.395 145.83 139.503 147.828 137.326 151.301C135.333 154.484 135.925 158.06 139.337 159.898C140.198 160.363 140.529 161.868 139.676 162.529C139.35 162.78 139.024 163.035 138.691 163.286C136.78 164.725 131.531 167.43 130.681 167.53C123.133 168.424 118.058 162.89 114.806 156.362C110.987 148.7 111.98 139.362 116.187 132.066C119.563 126.211 126.21 120.442 123.567 113.033C122.624 110.386 120.696 108.13 118.823 106.092C116.686 103.77 114.389 101.597 112.341 99.1931C110.305 96.8068 108.499 94.2102 107.491 91.2154C106.019 86.8384 106.751 82.1058 107.857 77.7364C110.227 68.3564 113.304 59.1016 116.581 50.0045Z" fill="black"/>
<path fill-rule="evenodd" clip-rule="evenodd" d="M158.86 98.9744C160.545 98.2877 162.049 97.1423 163.149 95.679C163.531 95.1704 163.63 94.6332 163.55 94.1419C163.46 93.5895 163.133 93.0888 162.686 92.753C162.239 92.4161 161.679 92.25 161.137 92.3347C160.667 92.4082 160.198 92.6655 159.828 93.199L159.75 93.3057C159.096 94.1888 158.245 94.9134 157.274 95.3805C156.338 95.8307 155.292 96.0408 154.209 95.9186C152.147 95.686 150.726 94.5723 149.215 93.06C149.028 92.869 148.84 92.6721 148.652 92.472C148.533 92.2906 148.368 92.1741 148.185 92.1129C147.981 92.045 147.751 92.0488 147.541 92.1223C147.337 92.1931 147.156 92.3274 147.034 92.506C146.918 92.6759 146.852 92.8856 146.874 93.1269C147.012 94.6942 147.832 96.093 148.998 97.1913C150.293 98.4111 152.009 99.2549 153.624 99.5509C155.404 99.8769 157.218 99.6434 158.86 98.9744ZM152.784 74.7959C150.891 75.9453 148.006 78.6253 150.043 81.4747C152.44 83.9871 155.893 81.1064 157.594 79.8036C159.171 78.794 160.944 81.3908 159.48 82.5697C147.187 91.6581 142.198 75.0964 151.827 73.4446C152.887 73.2625 153.281 74.4403 152.784 74.7959ZM174.814 64.2238C174.605 61.6306 170.649 61.0417 170.256 63.6078C169.904 65.9065 170.318 68.0181 171.355 70.0877C172.346 72.0649 174.836 71.1424 175.025 69.342C175.277 66.9287 174.944 65.837 174.814 64.2238ZM144.707 63.0758C144.155 62.3546 143.359 61.8623 142.405 62.1405C139.425 63.0102 140.303 67.2352 141.35 69.2917C141.919 70.4085 143.757 70.6917 144.588 69.7084C145.942 68.1048 146.59 64.9024 144.869 63.3229C144.822 63.2413 144.77 63.1589 144.707 63.0758ZM171.397 52.8767L170.927 52.7944C169.47 52.5429 167.659 52.3013 166.629 53.4704C166.083 54.0904 165.895 55.2428 166.629 55.8362C167.921 56.8804 169.349 56.4757 170.898 56.5641C172.173 56.6372 173.4 56.8481 174.629 57.1989C177.325 57.9684 179.522 59.3731 181.824 60.9156C182.127 61.1179 182.435 60.732 182.291 60.4498C180.962 57.8499 178.385 55.7143 175.805 54.4124C174.428 53.7176 172.921 53.1411 171.397 52.8767ZM147.424 51.7121L147.063 51.7857C143.142 52.6042 138.048 54.2391 136.191 58.0851C136.12 58.629 136.195 58.7455 136.255 58.8217L136.276 58.847C136.326 58.912 136.366 59.0017 136.602 59.0757C136.667 59.0601 136.733 59.0436 136.8 59.0261C137.651 58.8034 138.325 58.4965 138.977 58.1781L139.684 57.8304C140.504 57.4288 141.331 57.0419 142.208 56.7563C144.079 56.1468 146.004 55.7175 147.958 55.4882C148.382 55.4386 148.79 55.2958 149.112 55.0511C149.417 54.8189 149.651 54.4973 149.757 54.0699C149.895 53.5167 149.855 53.098 149.558 52.5989C149.335 52.2242 149.015 51.9644 148.648 51.8153C148.273 51.6632 147.847 51.6274 147.424 51.7121Z" fill="black"/>
</svg>
