<svg width="304" height="681" viewBox="0 0 304 681" fill="none" xmlns="http://www.w3.org/2000/svg">
<path fill-rule="evenodd" clip-rule="evenodd" d="M247.817 225.771L248.153 229.772L248.404 229.303C248.44 237.375 249.638 245.535 250.959 253.589C254.413 250.754 257.253 248.254 256.433 243.414C254.356 236.516 251.692 229.788 249.538 222.927L249.177 224.726L247.756 225.012L247.817 225.771ZM1.13483 650.999C1.77082 648.194 2.46499 645.224 3.11523 642.412C3.17936 642.175 3.77475 642.121 3.96664 642.057C7.40502 633.653 10.4138 631.737 17.0732 630.594C27.8118 628.655 38.4088 624.451 48.5531 618.22C48.3164 617.293 47.669 615.692 47.0805 613.983C47.1572 614.009 47.2346 614.032 47.3144 614.047C47.4505 614.074 47.5785 614.08 47.7006 614.071C48.3886 615.684 49.1374 617.1 49.5335 617.623C50.8005 616.807 52.2105 615.91 53.4521 615.043L53.4468 615.028C54.5519 614.263 55.9177 613.318 56.9997 612.729C57.2025 611.612 58.8436 611.265 59.7009 610.527C61.3652 609.34 62.2883 608.728 63.8149 610.243C67.1077 605.974 69.7598 601.46 72.3669 595.625C73.9985 592.214 74.8 588.437 76.9937 585.392C76.9516 585.368 75.5571 584.935 75.5229 584.895C100.452 529.767 104.446 468.425 109.764 409.498C110.937 396.32 112.164 383.021 114.451 370.23C114.764 368.293 115.046 366.385 116.214 364.841C102.204 353.318 102.068 330.983 108.853 314.418C93.2513 272.405 123.834 227.784 121.577 184.907C120.312 155.822 125.557 122.123 158.469 115.145C162.551 112.8 167.444 112.45 171.338 112.387C174.845 110.618 175.397 106.715 176.645 103.506L177.865 103.513C178.223 102.061 178.577 100.468 178.885 99.005C179.348 98.0771 179.074 96.8679 180.532 97.125C183.837 92.3488 210.286 89.9477 210.586 97.6382C211.541 98.2001 211.729 99.297 211.952 100.629C213.419 110.074 223.523 117.607 232.628 116.088L232.775 115.955C271.536 114.521 286.795 142.046 294.37 179.559C300.288 208.706 304.049 240.294 299.415 269.489C294.887 282.72 281.173 289.086 270.563 297.237C271.786 300.313 271.9 303.707 271.937 307.037C272.077 310.879 272.357 314.754 272.698 318.545C273.396 323.351 274.525 331.622 267.972 332.183C265.434 389.614 260.131 446.894 268.233 504.493C274.959 536.346 272.385 574.889 264.068 606.055C263.589 607.595 262.356 608.981 260.782 608.488C259.983 609.004 259.358 609.328 258.698 608.841C258.308 609.561 257.881 610.252 257.42 610.923C257.245 619.486 256.273 627.887 256.715 636.505C257.376 636.429 258.828 635.703 259.392 636.178L259.473 636.834L260.01 637.018C261.135 640.184 261.84 643.509 262.362 646.19C264.638 650.787 267.545 658.922 265.924 664.043C266.002 664.134 266.439 664.64 266.507 664.717C266.895 664.939 266.966 665.235 267.061 665.574C268.165 665.988 268.278 667.247 268.392 668.536C268.945 671.657 268.123 674.494 267.841 677.547L267.824 677.527C267.824 677.527 266.897 678.6 266.896 678.601C255.243 679.309 243.769 679.49 232.169 679.907C231.293 678.233 231.03 675.971 230.372 674.132C216.619 684.176 192.79 680.333 175.515 677.867C168.5 676.857 161.872 675.903 155.996 675.586C155.614 675.533 155.586 675.368 155.576 675.216C155.519 672.918 155.085 670.561 155.302 668.33C154.088 667.153 154.641 665.009 155.475 663.126C158.541 656.497 166.876 655.771 173.628 654.64C186.331 652.179 196.546 647.55 204.81 640.474C204.254 639.972 203.749 639.479 203.289 638.997C203.469 638.877 203.648 638.758 203.827 638.637C204.262 638.447 204.678 638.252 205.059 638.006C205.254 638.115 205.497 638.137 205.737 638.002C206.568 637.537 207.245 636.853 208.034 636.329C208.19 636.553 208.347 636.782 208.506 637.021C209.262 636.225 210.119 635.324 210.867 634.489C210.894 634.259 210.833 633.684 211.115 633.621C213.242 633.835 215.706 634.551 217.932 635.346C220.447 627.095 221.904 618.165 221.736 609.732C219.263 609.732 217.096 609.709 215.251 608.535C214.747 608.67 214.045 608.962 213.914 608.171C213.166 604.941 212.971 601.522 212.783 598.216C208.954 535.668 203.121 485.408 183.771 432.423C181.913 439.78 178.794 447.432 175.955 454.755C163.039 485.362 153.734 518.37 145.758 550.496C142.62 562.521 139.209 575.734 135.839 587.634C134.533 593.355 131.877 595.449 126.311 595.403C122.021 595.604 117.718 595.542 113.411 595.24C107.54 600.583 105.133 607.795 103.418 614.289C104.847 615.35 107.115 614.95 108.785 615.3C110.226 617.618 109.728 620.859 109.694 623.718C109.468 627.433 109.66 631.419 108.577 634.926C108.383 638.763 108.359 642.965 108.07 647.426C111.253 649.268 110.67 653.339 109.613 657.234C109.141 658.225 92.0344 658.028 87.7909 657.987C82.8046 657.697 75.6939 658.969 74.0588 653.511C62.1874 660.094 44.1268 657.87 30.2964 655.933C20.2589 654.712 11.1654 653.576 1.30844 651.505C1.20656 651.46 1.06334 651.143 1.13483 650.999Z" fill="white"/>
<path fill-rule="evenodd" clip-rule="evenodd" d="M211.182 95.5724C210.415 95.4181 209.755 95.6456 209.289 96.0654C209.19 97.1011 209.202 98.1342 209.287 99.1676C209.373 99.2411 209.468 99.3124 209.572 99.3785L209.493 99.3279C209.421 99.2814 209.371 99.2472 209.339 99.2221C210.351 105.957 215.035 111.686 221.107 114.732C221.483 115.351 222.332 115.309 222.943 115.588L223.8 115.857C226.162 116.596 228.552 117.295 231.051 117.342C224.699 135.153 199.859 144.83 182.287 146.145C167.112 146.943 158.69 134.38 162.694 120.288C171.485 119.152 180.128 109.816 176.941 100.794L176.841 100.521C176.82 100.429 176.696 100.462 176.687 100.542C176.59 101.462 176.041 102.474 175.797 103.372L175.684 103.691C174.838 106.124 174.088 109.024 171.7 110.319L171.291 110.328C166.995 110.44 162.509 111.007 158.726 113.13C154.507 113.957 150.475 115.626 146.721 117.693C117.077 133.759 121.822 167.932 120.898 196.391C118.022 235.388 94.2215 274.359 108.259 313.51C101.849 329.814 101.354 351.728 115.343 364.166C115.189 364.407 115.06 364.671 114.952 364.942C114.286 366.601 114.079 368.502 113.765 370.263L113.728 370.466C112.972 374.561 112.427 378.698 111.896 382.828C110.846 390.973 110.084 399.156 109.358 407.336L109.254 408.505C107.436 429.068 105.848 449.677 103.463 470.188L103.018 473.228C99.7893 495.187 96.2736 517.197 90.9779 538.714C90.8216 539.291 90.6663 539.868 90.507 540.444C88.5985 547.347 86.3521 554.133 84.241 560.972C83.5725 563.137 82.832 565.27 82.0514 567.384L81.0811 569.789C80.9191 570.189 80.7568 570.59 80.5939 570.99C78.8726 575.216 77.0392 579.395 75.1089 583.531C74.7607 584.277 75.2677 584.964 75.8653 585.155C74.1029 587.946 73.4383 591.269 71.9659 594.232C69.8601 598.955 67.3653 603.551 64.2523 607.694C62.5302 606.401 60.6066 608.07 59.1747 609.024C58.2557 609.595 57.0635 610.024 56.7025 611.031C56.009 611.429 55.3346 611.868 54.6957 612.306L54.6319 612.099C53.8559 609.62 52.3373 606.293 49.8701 605.186C46.9854 603.976 44.6841 606.389 45.5476 609.277C46.077 611.857 46.9032 614.328 47.7848 616.817C38.9106 622.165 29.2062 626.222 18.9978 628.257L18.6496 628.326C16.1868 628.814 13.6837 629.153 11.4251 630.321C7.68397 632.371 5.26797 636.268 3.75659 640.164C3.23174 640.292 2.74964 640.75 2.63327 641.252L1.6373 645.55C1.3057 646.982 0.975598 648.415 0.650238 649.849C0.472121 650.626 0.887725 651.605 1.74744 651.778C7.6728 652.961 13.6266 653.996 19.6066 654.872C36.5821 656.441 58.4236 661.956 74.1865 654.212C76.7015 659.374 83.7045 657.897 88.4572 658.287C91.3439 658.073 111.606 659.173 111.413 656.729L111.525 656.308C112.421 652.894 113.228 648.306 109.964 645.955C110.169 642.101 110.321 638.245 110.385 634.388C111.522 630.728 111.324 626.681 111.556 622.86C111.526 620.013 112.191 616.725 110.632 614.179C110.495 612.491 106.737 613.391 105.492 612.773L105.602 612.372C107.319 606.161 109.705 600.117 114.524 595.569C118.691 595.845 122.869 595.893 127.039 595.699C133.39 595.724 136.287 592.977 137.67 587.013C138.66 583.514 139.627 580.009 140.579 576.499C148.009 548.883 154.755 521.025 162.966 493.623C166.105 484.44 169.578 475.369 173.079 466.321C175.452 460.188 177.828 454.057 180.203 447.925C181.423 444.775 182.625 441.607 183.685 438.4C184.012 437.414 184.307 436.422 184.586 435.427C203.005 486.513 208.847 540.787 212.106 594.682C212.403 598.986 212.455 603.338 213.431 607.549C213.73 608.846 214.828 609.204 215.797 608.919C217.581 609.863 218.9 609.974 221.197 610.01L221.18 610.749C221.05 616.045 220.725 621.326 219.52 626.498C219.043 628.658 218.188 630.757 217.725 632.907C215.854 632.272 213.942 631.793 211.975 631.559C210.983 631.44 210.415 632.27 210.375 633.121C210.009 633.523 209.641 633.921 209.266 634.317L209.076 634.074C207.31 631.797 205.046 628.677 201.977 628.421C200.581 628.335 199.305 629.122 199.001 630.54C198.71 633.796 201.413 637.364 203.694 639.524C195.243 646.502 184.768 650.533 174.077 652.589L173.659 652.658C166.801 653.778 158.341 654.661 155.071 661.742L155.002 661.894C154.235 663.619 153.51 666.235 154.759 667.816C154.612 669.976 155.012 672.199 155.063 674.379C155.118 675.266 155.717 675.78 156.564 675.878C178.388 677.047 211.654 687.241 230.345 675.112C230.73 676.455 231.127 677.797 231.495 679.145C231.656 679.74 232.257 680.226 232.886 680.203C244.457 679.788 256.065 679.6 267.622 678.897C267.958 678.903 268.239 678.753 268.473 678.482C268.744 678.814 269.437 678.723 269.529 678.252C269.692 677.423 269.694 676.583 269.768 675.744C269.855 674.772 270.115 673.876 270.267 672.926C270.549 671.172 270.422 669.29 270.248 667.53L270.203 667.085C270.081 665.922 269.864 664.6 268.811 663.941L268.741 663.899C268.737 663.897 268.733 663.895 268.729 663.893C268.613 663.522 268.336 663.202 267.987 662.948L267.966 662.924C268.516 661.613 268.304 659.954 268.144 658.587C267.7 653.833 266.367 649.128 264.169 644.907C263.542 641.697 262.782 638.375 261.653 635.32C261.684 635.18 261.509 635.061 261.373 635.123C261.326 635.098 261.28 635.08 261.235 635.065C261.229 635.018 261.22 634.971 261.205 634.927C261.01 634.352 260.407 634.038 259.843 633.949C259.365 633.873 258.951 634 258.521 634.108C258.212 625.811 259.194 617.527 259.295 609.232C260.085 609.615 260.972 609.275 261.701 608.837C263.815 609.161 265.313 607.362 265.893 605.471L266.233 603.937C269.28 590.133 272.025 576.207 273.502 562.136C275.542 542.494 273.077 522.835 270.083 503.424C261.955 452.311 267.842 400.645 268.422 349.251C268.906 343.64 269.107 337.967 269.723 332.359C272.016 332.087 273.749 329.946 274.523 327.894C275.737 324.643 274.86 320.89 274.554 317.549C274.214 313.844 273.965 310.133 273.803 306.419L273.784 305.334C273.729 302.438 273.603 299.522 272.64 296.765C282.912 288.873 296.535 282.674 300.882 269.481C302.86 267.703 302.461 259.463 302.784 256.44C304.104 230.294 301.868 203.974 296.203 178.415C289.113 143.585 274.588 112.373 233.877 113.865C233.908 113.841 233.941 113.815 233.972 113.789C233.542 113.647 233.098 113.786 232.782 114.071C225.85 114.959 219.224 110.872 215.761 104.998C214.911 103.533 214.279 102.005 213.942 100.343L213.916 100.21C213.563 98.3833 213.463 96.0303 211.182 95.5724ZM263.777 664.385C264.761 664.928 265.837 664.993 266.743 665.716C267.379 669.191 267.327 672.796 266.562 676.244C255.709 676.36 244.842 676.908 233.993 677.28C233.556 675.605 233.143 673.919 232.687 672.248L232.676 672.214L232.652 672.148C231.526 672.186 230.4 672.219 229.274 672.247C212.613 684.164 178.094 674.037 157.982 673.042L157.776 669.703C157.979 669.844 158.181 669.923 158.374 669.95C158.187 669.463 158.52 668.828 159.183 669.013C160.253 669.312 161.329 669.587 162.408 669.846C162.49 669.813 162.583 669.798 162.687 669.807C172.128 670.611 181.608 670.536 191.076 670.565C200.51 670.593 209.935 670.99 219.37 670.964C223.219 670.953 227.067 670.895 230.914 670.781C241.994 668.727 252.995 666.304 263.777 664.385ZM5.15256 644.023C5.61955 644.36 6.22957 644.389 6.87811 644.477L6.97101 644.49C7.56402 644.577 8.15823 644.658 8.75504 644.703C10.2296 645.654 13.1667 645.525 14.5885 645.796C45.7996 648.909 77.2275 645.215 108.47 647.716C109.962 649.839 109.598 652.467 108.805 654.84C100.081 655.168 91.3484 655.345 82.6197 654.968L81.9221 654.942C80.8442 654.9 79.7383 654.823 78.7415 654.416C77.8511 654.053 76.7571 653.153 76.8965 652.076L76.9057 652.015C77.1194 650.778 75.818 649.33 74.5522 650.209C62.6143 658.113 46.394 654.139 32.944 653.361C23.2521 652.337 13.6124 650.88 4.04633 649.033C4.41705 647.364 4.7854 645.693 5.15256 644.023ZM223.178 609.009C224.179 609.124 225.182 609.226 226.185 609.317C230.21 609.68 234.25 609.862 238.289 609.978L240.175 610.029C243.939 610.13 247.727 610.219 251.483 610.015C253.383 609.913 255.332 609.689 257.169 609.173C255.553 617.634 254.721 626.25 254.747 634.86C254.243 635.296 254.345 636.016 254.479 636.567L254.352 636.941C254.058 637.816 253.777 638.707 253.664 639.603C242.002 646.525 232.32 639.435 221.686 634.471C223.439 629.922 223.972 624.935 224.266 620.104C224.429 616.346 224.148 612.68 223.178 609.009ZM201.979 631.353C202.465 631.408 202.916 631.712 203.309 631.98C204.931 633.14 206.333 634.512 207.613 635.995C207.121 636.479 206.62 636.955 206.109 637.422C204.194 635.882 202.689 633.735 201.979 631.353ZM78.0243 587.363L79.6033 587.894C89.3512 591.158 99.3009 594.222 109.655 595.137C109.1 595.687 108.632 596.339 108.221 597.031C107.863 597.335 107.502 597.722 107.604 598.183C107.271 598.854 106.977 599.534 106.696 600.176C105.058 604.064 103.168 607.889 101.787 611.891C101.387 613.562 99.8113 615.898 100.545 617.516C89.5373 622.3 75.8439 620.169 67.4346 611.417L67.7312 610.981C72.5635 603.837 76.8103 595.988 78.0243 587.363ZM48.1671 607.559C48.8345 606.985 50.0053 608.569 50.3022 608.962C51.3994 610.42 52.1546 612.015 52.715 613.683C52.0102 614.166 51.2998 614.619 50.5824 615.082L50.543 615.016C49.8757 613.866 47.4752 608.288 48.1671 607.559ZM257.512 607.436L257.5 607.495C256.909 607.587 256.317 607.669 255.722 607.736C254.278 607.9 252.815 607.972 251.357 608.003C253.409 607.707 255.462 607.467 257.512 607.436ZM241.867 329.299L242.353 329.25L242.977 329.173C250.988 328.18 259.061 326.853 267.128 328.143C266.01 333.301 265.936 338.706 265.575 343.989C263.853 394.883 257.653 446.068 264.6 496.842L264.814 498.38C267.346 516.438 270.359 534.559 269.146 552.857C268.2 569.535 264.799 585.931 261.421 602.252C260.608 602.456 259.796 602.66 258.982 602.859C258.958 602.633 258.817 602.762 258.789 602.906C248.782 605.573 238.338 605.802 228.056 605.132C226.117 605.021 224.187 604.864 222.249 604.731C220.756 604.083 219.159 603.67 217.54 603.385C214.124 551.593 209.652 499.209 193.599 449.554C183.379 418.009 170.615 387.29 163.062 354.937C162.801 354.029 161.423 354.411 161.647 355.328L161.883 356.569C163.801 366.701 165.529 376.866 168.515 386.77C166.248 384.305 163.663 382.13 161.523 379.55C160.856 378.738 160.243 377.882 159.716 376.97C159.216 375.839 158.413 374.954 157.17 374.69C156.6 374.459 156.07 374.943 155.883 375.419C155.36 376.734 155.581 377.672 156.342 378.831L156.532 379.116C159.89 384.07 165.264 386.963 169.7 390.851C173.413 403.222 177.686 415.417 181.876 427.631C181.929 430.06 181.486 432.459 180.774 434.776C179.963 437.158 179.236 439.682 177.99 441.915C160.667 478.055 151.938 517.434 141.413 555.888C138.642 566.144 135.836 576.395 132.815 586.581L132.772 586.766C132.084 589.637 131.01 590.792 127.857 590.788C112.058 591.513 95.8365 588.939 81.4441 582.597C89.3718 561.482 94.8765 539.631 99.1566 517.486C101.316 507.018 103.066 496.467 104.539 485.875C106.592 472.351 108.402 458.797 110.237 445.311C113.99 418.88 113.825 391.984 118.609 365.714C120.243 365.768 121.643 363.83 120.649 362.384C120.995 360.945 120.686 359.373 120.172 358.044L120.233 357.755C125.837 362.723 133.151 363.351 129.398 353.802L129.139 353.153C126.32 346.147 122.734 338.661 124.325 330.975C140.581 339.635 160.451 338.238 177.922 334.443C176.561 339.381 180.227 342.408 184.363 339.093C185.108 338.491 185.84 337.867 186.557 337.223C185.506 341.384 186.07 345.745 187.041 349.87L187.134 350.345C187.607 352.82 188.144 356.104 190.029 357.817C191.404 359.063 193.475 358.532 194.093 356.752C194.438 350.865 196.082 345.073 199.094 339.953C198.591 343.696 198.714 347.54 199.638 351.128C199.994 352.501 200.488 353.901 200.605 355.321L200.587 355.554C200.41 358.055 200.743 360.352 203.868 360.403C211.279 359.099 206.604 341.594 211.322 336.059C212.756 342.74 211.086 351.522 217.602 355.956C219.402 357.08 221.598 356.428 221.964 354.247L221.835 352.534C221.057 342.077 221.203 338.943 227.92 329.141C232.476 330.23 237.246 329.764 241.867 329.299ZM109.85 598.031C109.845 598.071 109.843 598.109 109.841 598.15C109.763 598.229 109.686 598.309 109.609 598.39L109.494 598.512L109.627 598.185C109.701 598.138 109.777 598.083 109.85 598.031ZM115.966 364.706L116.272 364.963C116.323 365.006 116.374 365.049 116.426 365.091C116.155 366.297 115.902 367.506 115.656 368.716L115.704 367.919C115.748 367.135 115.624 365.712 115.966 364.706ZM120.913 257.522C123.206 246.874 125.49 242.381 122.587 257.717L122.272 259.373C121.015 266.014 119.69 273.542 118.446 281.646L118.186 283.343C116.888 291.745 114.846 304.046 114.695 313.9C114.524 325.081 120.211 328.399 122.459 329.847C122.879 331.077 122.345 332.103 121.991 333.284C121.513 335.18 121.39 337.002 121.526 338.951C121.998 345.598 125.556 351.602 127.173 357.909C125.101 357.341 122.789 355.477 120.979 354.001C117.765 351.448 115.522 347.666 114.553 343.655C114.092 341.762 114.427 339.423 113.135 337.87C112.755 337.412 111.933 337.457 111.546 337.87C110.491 338.991 110.591 340.366 110.762 341.799C111.337 346.678 113.486 351.461 116.949 354.973C117.112 356.774 117.651 358.381 118.008 360.095C117.87 360.479 117.733 360.862 117.602 361.249C115.256 359.226 113.295 356.78 111.776 354.086C104.996 342.2 107.364 328.513 109.119 315.551C109.471 316.419 110.274 316.764 111.054 316.679C111.503 317.8 112.675 317.085 112.722 315.636C113.012 306.604 114.214 293.764 116.426 280.611C117.744 272.773 119.341 264.827 120.913 257.522ZM206.537 298.533C209.9 308.951 223.154 310.983 230.896 317.338C227.008 327.577 216.123 338.543 219.326 351.752L219.344 351.851C219.44 352.357 219.756 353.785 219.416 354.053C219.2 354.224 217.87 352.927 217.637 352.671C212.98 347.139 215.689 339.316 213.07 333.009C212.726 332.17 211.652 331.674 210.926 332.445C207.65 335.908 206.859 340.578 206.357 345.14L206.34 345.298C205.936 348.847 206.158 352.503 205.105 355.954L205.065 356.076C204.841 356.743 204.423 357.683 203.955 357.852C202.666 358.319 203.15 356.257 203.105 355.442C202.97 353.086 201.968 350.88 201.616 348.559C200.866 343.582 201.614 338.36 203.269 333.642C203.794 332.144 201.728 331.613 200.93 332.658C197.617 337 194.962 341.826 193.211 347.004C192.506 349.093 192.131 351.207 191.661 353.335C188.727 344.446 188.812 335.101 195.456 327.814C197.028 325.929 194.408 323.213 192.715 325.081C190.959 327.17 189.24 329.281 187.331 331.236C185.449 333.13 183.635 335.461 181.306 336.813C181.684 328.304 190.83 324.46 195.708 318.634C200.68 312.767 203.399 305.45 206.537 298.533ZM250.491 226.681C252.272 232.087 254.358 237.397 255.968 242.86C256.302 246.557 255.162 248.09 252.441 250.437C251.264 243.731 250.776 236.93 250.147 230.151C250.243 228.992 250.262 227.824 250.491 226.681ZM249.613 224.024L249.791 224.572L249.732 224.677L249.674 224.783L249.613 224.024ZM141.065 156.377L140.385 160.853C137.887 177.263 135.309 193.67 131.763 209.892C131.568 210.786 130.414 209.586 130.627 207.855C132.807 190.056 141.034 156.167 141.067 156.361L141.065 156.377ZM162.058 120.39C161.898 120.579 161.749 120.778 161.604 120.98C161.635 120.799 161.666 120.617 161.699 120.434C161.82 120.42 161.939 120.406 162.058 120.39Z" fill="black"/>
<path fill-rule="evenodd" clip-rule="evenodd" d="M145.483 56.6672C146.383 41.9247 151.176 25.2105 165.284 17.9722C196.385 5.51543 237.277 36.8851 239.442 68.9317C240.197 79.9015 234.094 91.8883 222.941 94.9381C220.462 98.2167 216.712 100.219 213.01 101.957C168.926 124.782 140.449 106.228 145.483 56.6672Z" fill="white"/>
<path fill-rule="evenodd" clip-rule="evenodd" d="M135.44 47.4965C136.998 43.1782 138.644 38.8931 140.375 34.6411C142.061 30.5029 143.584 26.2753 145.678 22.3332C158.184 -1.2114 180.926 -1.2114 192.682 1.86499C198.778 -0.756337 210.197 -0.0169265 216.545 2.34849C226.821 6.17787 239.349 21.2417 243.632 28.0098C253.088 42.9531 258.99 62.8422 252.708 80.1098C251.887 82.3666 250.84 84.4568 249.661 86.4712C250.404 87.4756 251.259 88.427 252.206 89.3617C255.019 92.14 257.833 94.8267 260.264 97.9602C262.679 101.074 264.682 104.386 266.173 108.037C268.984 114.923 269.119 122.719 265.403 129.289C262.17 135.006 256.442 139.263 249.989 139.669C249.658 139.715 249.326 139.757 248.993 139.791C248.138 141.196 247.095 142.49 245.906 143.618C242.26 147.079 233.57 148.854 228.614 148.968C228.36 149.171 228.103 149.375 227.847 149.577C224.814 151.959 221.632 154.362 218.15 156.057C215.792 157.206 212.7 158.166 210.239 157.336C209.123 158.081 207.292 157.924 206.185 157.315C204.366 156.315 202.887 154.514 201.987 152.67C199.804 148.193 200.329 143.294 200.889 138.511C201.507 133.228 202.101 127.942 202.704 122.66C203.176 118.528 203.67 114.329 204.929 110.349C205.58 108.287 206.432 106.306 207.534 104.443C207.506 104.287 207.511 104.13 207.556 103.983C207.917 102.812 208.662 102.198 209.546 101.402C209.66 101.3 209.774 101.196 209.886 101.089C210.327 100.587 210.8 100.12 211.306 99.7241C211.5 99.5273 211.693 99.3283 211.885 99.1292C213.484 97.4583 214.994 95.702 216.336 93.8201C217.637 91.9952 218.813 90.0896 219.931 88.1485C221.069 86.1742 221.822 83.9961 222.957 82.036C223.054 81.8677 223.301 81.8346 223.439 81.9744C223.791 82.337 224.016 82.7399 223.973 83.1642L224.149 83.1902C224.216 82.5503 224.807 82.0289 225.61 82.1687C226.811 82.3773 227.799 82.4555 228.84 82.0573C228.657 80.8462 228.488 79.6327 228.322 78.4169C228.018 76.1795 227.735 73.935 227.493 71.6905C226.906 71.8304 226.325 72.0318 225.755 72.2878C224.942 72.6504 224.175 73.1387 223.52 73.7383C222.874 74.3308 222.427 75.1295 221.639 75.5419C220.732 76.0136 219.637 75.2338 219.903 74.2099C220.442 72.1408 223.494 70.9558 225.382 70.5647C226.03 70.4296 226.693 70.3727 227.355 70.387C227.206 68.9459 227.073 67.5049 226.963 66.0615C226.911 65.3789 226.864 64.6964 226.819 64.0114C225.351 63.5682 223.779 63.4355 222.252 63.644C221.748 64.0446 221.245 64.4404 220.758 64.8409C219.212 66.116 217.673 67.3983 216.153 68.7042C216.015 68.8203 215.88 68.9365 215.742 69.055C214.84 69.83 213.714 69.0621 213.866 67.9647C215.106 58.9726 209.586 51.8196 203.124 46.2783C195.971 40.1421 182.966 39.4276 174.459 28.7988C170.541 29.5946 161.794 31.9582 158.184 37.6985C153.13 45.7427 153.791 52.9501 153.406 62.075C153.021 71.207 152.043 80.7325 154.121 89.7365C156.037 98.0389 161.226 105.133 169.277 108.394C169.477 108.474 169.679 108.553 169.88 108.629C174.044 110.195 178.587 110.638 182.966 109.814C187.813 108.899 191.86 106.685 195.893 103.962C196.125 103.808 196.465 104.125 196.289 104.358C190.974 111.387 180.534 113.736 172.253 111.88C171.866 111.793 171.481 111.698 171.099 111.594C172.951 116.91 172.578 122.745 170.165 127.921C168.714 131.035 166.501 133.73 163.806 135.856C160.835 138.198 157.149 140.089 155.087 143.377C153.199 146.389 153.76 149.773 156.992 151.513C157.807 151.954 158.12 153.378 157.313 154.004C157.004 154.241 156.695 154.483 156.379 154.72C154.57 156.083 149.599 158.642 148.794 158.737C141.645 159.583 136.839 154.345 133.758 148.167C130.141 140.914 131.082 132.076 135.067 125.169C138.264 119.628 144.559 114.167 142.056 107.154C141.163 104.649 139.337 102.514 137.563 100.584C135.54 98.3873 133.364 96.3301 131.424 94.0548C129.495 91.7961 127.785 89.3383 126.831 86.5036C125.437 82.3607 126.13 77.8812 127.178 73.7454C129.422 64.867 132.336 56.1071 135.44 47.4965Z" fill="black"/>
<path fill-rule="evenodd" clip-rule="evenodd" d="M189.09 87.7713C186.182 84.3987 181.284 84.1638 177.226 85.0071C174.623 85.5484 172.087 86.45 169.443 86.7842C168.207 86.9404 166.959 86.9871 165.715 86.9641C164.493 86.9416 163.269 86.6958 162.051 86.7415C161.864 86.7484 161.793 86.9937 161.955 87.0935C163.626 88.1176 165.876 88.4461 167.85 88.6464C167.844 88.7921 167.835 88.9343 167.815 89.055C167.761 89.3766 167.712 89.6961 167.672 90.0198C167.583 90.7501 167.482 91.4779 167.382 92.2067C167.185 93.6411 167.123 95.1207 166.777 96.5302L166.716 96.7644C166.636 97.0607 166.618 97.3278 166.645 97.5686L166.564 97.5323L166.311 97.4098L166.145 97.3315C165.538 97.0509 164.959 96.8465 164.246 96.9147C163.703 96.9664 163.247 97.3359 163.244 97.9144C163.231 100.511 166.737 101.346 168.743 101.843L169.331 101.987C171.884 102.609 174.49 103.154 177.116 103.284C181.329 103.493 186.064 102.333 188.82 98.9219C191.392 95.7396 191.864 90.9871 189.09 87.7713ZM169.956 98.6804C170.398 94.7713 175.211 94.5564 176.596 97.0353C177.211 93.5799 186.301 96.7367 185.59 97.4236C182.896 100.027 178.807 100.262 175.293 99.7802C173.503 99.5348 171.711 99.1355 169.956 98.6804ZM175.298 88.4346L176.508 88.2607L176.985 88.1952C179.985 87.7943 183.359 87.5872 185.825 89.5067C186.726 90.2073 187.232 91.1212 187.422 92.1029C185.088 91.7577 182.745 91.4943 180.396 91.275L179.755 91.2163C178.285 91.084 176.816 90.9447 175.347 90.7984L174.303 90.693L173.26 90.5849C172.893 90.5465 170.418 90.4202 169.953 90.505C169.903 90.0879 169.839 89.1851 169.734 88.7791C171.491 88.8386 173.242 88.7083 174.989 88.4765L175.298 88.4346ZM169.727 70.962C167.934 72.0499 165.201 74.5866 167.13 77.2836C169.401 79.6616 172.671 76.9351 174.282 75.7019C175.776 74.7462 177.455 77.2042 176.069 78.3201C164.426 86.9224 159.701 71.2464 168.82 69.6829C169.824 69.5106 170.197 70.6254 169.727 70.962ZM166.518 75.545L166.431 75.4982L166.402 75.4806C166.352 75.448 166.384 75.4515 166.499 75.4912L166.585 75.522V75.5827C166.563 75.5691 166.539 75.559 166.518 75.545ZM189.485 65.8797L189.486 65.8263C189.482 64.3149 188.6 60.8642 186.42 60.8642C185.058 60.8642 184.231 63.2127 184.088 65.6336L184.083 65.7323C184.02 67.2375 184.434 70.5274 186.42 70.5274C188.428 70.5274 189.465 67.4114 189.485 65.8797ZM157.388 65.4057L157.387 65.3523C157.391 63.8409 158.273 60.3902 160.453 60.3902C161.781 60.3902 162.6 62.6227 162.773 64.9782L162.785 65.1596C162.871 66.6139 162.484 70.0534 160.453 70.0534C158.445 70.0534 157.408 66.9374 157.388 65.4057ZM188.242 50.5596C186.462 50.2896 184.106 50.8025 183.277 52.6081C182.907 53.4125 183.345 54.302 184.276 54.3465C186.528 54.4541 188.547 53.954 190.524 55.4152C191.374 56.0442 192.089 56.915 192.69 57.7836L192.917 58.1141L193.105 58.3865C193.512 58.9843 193.898 59.6339 193.838 60.3552C193.82 60.5688 194.039 60.7714 194.246 60.7629C195.542 60.7098 195.681 59.0891 195.511 58.1157C195.194 56.3092 194.318 54.6134 193.104 53.2475C191.828 51.8131 190.145 50.8485 188.242 50.5596ZM163.735 52.7521C162.508 51.9649 160.939 51.6625 159.502 51.7784C156.668 52.0062 151.913 54.4104 152.539 57.8648C152.732 58.9302 154.217 59.4924 155.092 58.9013C156.033 58.2659 156.262 57.2782 156.962 56.4477C157.52 55.7844 158.228 55.3044 158.986 54.8956C159.734 54.4923 160.598 54.2479 161.446 54.1588L161.587 54.1454C162.097 54.1021 164.675 54.1137 164.296 55.0738C164.222 55.2618 164.503 55.4106 164.631 55.2684C165.421 54.3962 164.527 53.2597 163.735 52.7521Z" fill="black"/>
</svg>
