<svg width="350" height="470" viewBox="0 0 350 470" fill="none" xmlns="http://www.w3.org/2000/svg">
<path fill-rule="evenodd" clip-rule="evenodd" d="M70.3231 407.291C110.575 413.375 151.556 413.681 192.142 411.472C208.205 410.275 224.316 410.059 240.366 411.589C249.849 412.291 291.43 415.454 294.828 407.002C292.69 361.993 288.359 316.601 275.074 273.314C269.61 257.943 264.918 245.186 254.254 232.467C250.894 228.995 243.646 221.711 239.493 219.336C235.895 217.278 234.391 218.012 232.326 214.537C230.273 210.697 228.758 204.285 225.843 201.576C222.875 198.818 218.477 199.805 213.025 200.693C214.027 187.225 207.779 183.794 199.172 181.233C184.043 175.487 169.101 178.374 165.294 196.701C158.233 196.701 154.267 199.724 149.98 202.629C148.227 203.817 149.446 206.843 147.353 207.776C143.479 209.148 136.635 208.812 132.905 210.501C115.947 218.181 100.842 229.318 90.9223 245.583C68.6837 280.309 53.4075 353.46 56.0509 394.618C54.8927 396.425 56.4943 399.017 56.9014 400.961C57.4153 402.651 59.0793 403.776 60.816 403.583C63.2395 406.177 66.9879 406.754 70.3231 407.291Z" fill="white"/>
<path fill-rule="evenodd" clip-rule="evenodd" d="M236.93 218.318C236.683 218.181 236.901 217.829 237.149 217.945C249.086 223.518 258.244 233.295 264.688 244.591C271.36 256.288 275.163 269.568 278.441 282.548L278.559 283.017C282.055 296.902 285.028 310.931 287.704 324.994C290.414 339.236 292.59 353.565 294.34 367.954C295.206 375.069 295.977 382.196 296.579 389.337C296.88 392.906 297.153 396.477 297.399 400.05C297.497 401.479 297.589 402.908 297.669 404.338L297.726 405.411C297.775 406.384 297.891 407.36 297.649 408.32C297.441 409.147 297 409.896 296.613 410.656C295.847 412.158 293.747 411.91 292.922 410.656L292.682 410.291C292.135 409.449 291.68 408.667 291.508 407.619C291.342 406.605 291.336 405.542 291.262 404.517C291.125 402.632 291.008 400.745 290.875 398.859C290.595 394.889 290.281 390.922 289.934 386.958C289.246 379.132 288.509 371.313 287.604 363.508C285.995 349.638 283.976 335.805 281.596 322.045C279.27 308.604 276.33 295.299 273.264 282.01L272.946 280.636C267.576 257.435 259.3 230.716 236.93 218.318ZM109.782 309.167C109.87 308.935 110.247 308.881 110.311 309.167C111.115 312.769 111.195 316.48 111.318 320.169C111.439 323.807 111.434 327.462 111.381 331.103C111.184 344.484 110.815 357.853 110.496 371.231C110.336 377.923 110.186 384.616 110.072 391.308C110.028 393.819 109.992 396.329 109.961 398.839L109.924 402.15C109.906 403.614 109.867 405.06 109.688 406.522C109.569 407.484 109.317 408.401 108.784 409.225C108.405 409.811 107.865 410.108 107.339 410.505L107.241 410.581C106.57 411.109 105.863 411.113 105.198 410.581L105.005 410.429C104.371 409.935 103.822 409.549 103.417 408.768C102.853 407.682 102.763 406.502 102.667 405.305C102.521 403.49 102.618 401.648 102.636 399.828C102.674 396.176 102.725 392.526 102.789 388.874C103.026 375.485 103.493 362.094 104.344 348.729C104.745 342.433 105.289 336.118 106.018 329.848L106.157 328.673C106.378 326.828 106.58 324.95 106.808 323.067C103.413 320.691 100.43 317.808 97.8853 314.538C97.698 314.298 98.0064 313.96 98.2325 314.193C100.832 316.872 103.813 319.007 107.113 320.686C107.654 316.743 108.397 312.822 109.782 309.167ZM166.488 189.816C166.535 189.78 166.607 189.765 166.652 189.816C167.381 190.663 167.233 191.957 167.257 193.029L167.26 193.129C167.312 194.697 167.322 196.261 167.317 197.83L167.3 202.824C167.298 203.511 167.242 204.226 167.278 204.917L167.296 205.184C167.679 205.575 167.857 206.139 167.727 206.706C167.704 207.433 167.322 208.04 166.765 208.421L167.959 210.108L169.155 211.793C171.619 215.272 174.111 218.719 176.708 222.101C179.355 225.55 182.18 228.869 185.136 232.06C186.58 233.619 188.049 235.157 189.552 236.66C190.162 237.271 190.788 237.867 191.407 238.469L192.023 239.075C192.387 239.437 192.845 239.795 193.086 240.254C193.228 240.525 193.261 241.192 193.312 241.302C193.768 242.299 192.99 243.89 191.697 243.392L191.756 243.353C191.991 243.19 191.84 243.188 191.303 243.346C190.964 243.345 190.646 243.268 190.349 243.114L190.261 243.066C189.843 242.854 189.47 242.445 189.13 242.118L189.046 242.038C188.269 241.314 187.529 240.546 186.784 239.789C185.231 238.21 183.712 236.597 182.242 234.94C179.309 231.636 176.528 228.198 173.895 224.653C171.212 221.042 168.719 217.246 166.575 213.294C165.761 211.794 165.016 210.265 164.3 208.719C162.908 208.274 162.585 206.801 162.682 205.142C162.169 203.951 161.706 202.737 161.432 201.496C161.395 201.325 161.615 201.165 161.746 201.314C162.192 201.817 162.604 202.353 163 202.903C163.239 201.739 163.542 200.668 163.684 199.986L164.301 196.972C160.824 196.792 157.013 198.214 154.616 200.703C154.487 201.351 153.986 201.815 153.497 202.421C152.939 203.113 152.452 203.89 152.088 204.703C151.283 206.505 151.737 209.159 150.174 210.481C150.011 210.619 149.829 210.714 149.641 210.774C150.383 214.394 150.046 218.383 150.03 222.055L150.029 222.379C150.033 226.489 149.895 230.603 149.735 234.71L149.573 238.775C149.363 244.196 149.226 249.619 149.755 255.011C152.172 252.88 154.672 250.847 157.257 248.911C158.957 247.637 160.691 246.408 162.456 245.226L163.891 244.272C165.61 243.125 167.37 241.945 169.253 241.124C171.714 240.05 174.055 240.419 176.432 241.52C178.799 242.618 181.095 243.892 183.416 245.081C185.778 246.291 188.144 247.49 190.509 248.692C192.075 249.488 194.37 250.207 195.519 251.673C195.592 251.349 195.678 251.026 195.778 250.703C195.664 250.212 195.708 249.681 195.985 249.175C199.845 242.116 203.417 234.889 206.964 227.671C208.759 224.018 210.466 220.321 212.265 216.67L214.013 213.115C214.305 212.522 214.598 211.931 214.893 211.34C215.334 210.455 215.794 209.578 216.24 208.696C216.428 208.323 216.665 207.952 216.848 207.576L216.935 207.387C216.939 207.377 217.363 206.052 217.036 206.178L217.007 206.192C216.841 206.286 216.707 206.077 216.815 205.943C217.278 205.374 217.922 205.878 218.186 206.405C218.914 207.856 217.581 210.132 217.068 211.521L217.04 211.599C215.449 216.081 213.647 220.479 211.801 224.862C208.261 233.264 204.458 241.538 200.664 249.826L200.619 249.968C201.428 249.351 202.292 248.791 203.032 248.246C204.898 246.87 206.819 245.562 208.736 244.259C212.253 241.868 215.865 239.635 219.537 237.49L220.272 237.062C222.106 235.999 223.923 235.137 226.1 235.456C228.122 235.752 230.003 236.834 231.83 237.712L232.019 237.802L237.665 240.473C237.061 238.078 236.408 235.694 235.726 233.32C234.396 228.688 232.933 224.095 231.346 219.544C229.864 215.291 228.262 211.085 226.568 206.912L226.057 205.66C225.367 203.942 224.68 202.068 222.705 201.539C220.731 201.01 218.468 201.795 216.664 200.675C216.5 200.573 216.521 200.304 216.719 200.255L217.832 199.976C219.922 199.458 222.372 198.938 224.348 199.441C226.498 199.989 228.277 201.785 229.32 203.652C230.48 205.729 231.298 208.053 232.178 210.267L232.318 210.616C233.328 213.122 234.3 215.643 235.229 218.18C237.088 223.251 238.781 228.383 240.313 233.561C241.051 236.057 241.751 238.564 242.424 241.078C242.618 241.801 242.937 242.677 243.199 243.592C243.499 243.883 243.783 244.208 244.05 244.579C244.492 245.194 244.174 245.915 243.625 246.283C243.603 246.912 243.463 247.504 243.127 248.011C241.816 249.991 238.35 249.481 238.491 246.819C238.512 246.411 238.672 246.022 238.914 245.694L238.907 245.64L238.879 245.543C238.278 245.256 237.674 244.936 237.037 244.623L231.111 241.71C229.395 240.866 227.493 239.562 225.585 239.24C223.806 238.94 221.928 240.259 220.4 241.055L220.3 241.106C216.605 242.991 212.937 244.939 209.283 246.902C207.499 247.861 205.739 248.859 203.962 249.829C202.476 250.64 200.873 251.805 199.203 252.263C198.49 252.814 197.643 252.741 196.962 252.323C197.273 254.241 197.254 256.209 197.349 258.17C197.478 260.791 197.497 263.419 197.54 266.044L197.557 267.028C197.669 272.83 197.729 278.634 197.751 284.438C197.83 305.105 197.601 325.777 197.547 346.444C197.52 356.827 197.313 367.22 197.042 377.599C196.927 381.998 196.687 386.391 196.427 390.782L196.284 393.177C195.982 398.232 195.804 403.341 194.864 408.327C194.741 408.978 193.635 408.994 193.526 408.327C192.661 402.985 192.613 397.525 192.446 392.12L192.411 391.039C192.211 385.236 192.117 379.436 192.137 373.629C192.211 352.954 192.751 332.292 193.193 311.623C193.415 301.238 193.564 290.849 193.909 280.468C194.082 275.273 194.277 270.082 194.509 264.889C194.612 262.571 194.712 260.255 194.867 257.94L194.937 256.948C194.985 256.301 195.023 255.662 195.071 255.028C192.968 255.792 191.046 254.378 189.155 253.41C186.975 252.294 184.797 251.177 182.616 250.063L180.434 248.952L176.067 246.734C174.101 245.736 172.586 244.742 170.489 245.913C162.933 250.131 155.99 255.744 149.698 261.633C148.492 262.762 145.942 262.459 145.636 260.566C144.331 252.48 145.125 244.276 145.791 236.165L146.037 233.154C146.335 229.557 146.659 225.961 147.091 222.379C147.285 220.776 147.477 219.175 147.69 217.576L147.854 216.376C148.12 214.481 148.294 212.597 148.861 210.778C148.682 210.721 148.51 210.626 148.356 210.481C146.65 208.87 147.472 206.075 148.251 204.159C149.02 202.268 150.192 200.617 151.66 199.196C151.98 198.886 152.432 198.686 152.885 198.676C156.445 196.329 160.349 195.158 164.414 196.439C164.528 195.896 164.644 195.354 164.767 194.813L164.891 194.272C165.207 192.93 165.325 190.714 166.488 189.816ZM202.969 401.736C204.073 401.433 205.283 401.752 206.092 402.557C206.901 403.363 207.222 404.566 206.917 405.665C206.765 406.206 206.49 406.676 206.092 407.075C205.72 407.442 205.286 407.705 204.791 407.862L204.675 407.896L204.495 407.971C203.941 408.119 203.387 408.119 202.834 407.971C202.305 407.823 201.845 407.557 201.455 407.172C201.068 406.783 200.8 406.326 200.652 405.799C200.503 405.248 200.503 404.697 200.652 404.146L200.727 403.967C200.879 403.426 201.154 402.956 201.552 402.557C201.953 402.162 202.425 401.888 202.969 401.736ZM268.554 292.211C268.735 292.003 269.029 292.269 268.917 292.489C267.196 295.845 265.279 299.178 263.394 302.449C263.545 303.355 263.695 304.255 263.867 305.131C264.601 308.867 265.5 312.536 266.087 316.307C268.194 329.864 269.288 343.569 270.227 357.247C271.168 370.975 271.289 384.709 271.43 398.464C271.443 399.656 270.521 401.041 269.286 401.266C268.721 401.369 268.298 401.349 267.734 401.266C266.449 401.078 265.645 399.613 265.59 398.464C265.221 390.777 264.725 383.099 264.151 375.424C263.133 361.816 262.511 348.173 261.689 334.551L261.399 329.79C261.088 324.632 260.804 319.469 260.712 314.303C260.65 310.88 260.834 307.458 260.721 304.04C260.616 300.883 260.295 297.451 260.994 294.35C261.02 294.234 261.205 294.205 261.258 294.316C261.985 295.839 262.446 297.495 262.8 299.184C264.674 296.826 266.583 294.463 268.554 292.211ZM145.808 208.834C146.071 208.816 146.061 209.209 145.808 209.238C142.131 209.663 138.578 211.152 135.106 212.418L134.808 212.525C131.3 213.792 127.88 215.265 124.589 217.02C118.154 220.453 112.244 224.879 107.019 229.945C86.1597 250.172 76.6533 279.339 69.6875 306.748C65.8171 321.977 63.0649 337.463 61.281 353.068C60.3989 360.785 59.7753 368.532 59.4118 376.291C59.2257 380.267 59.1083 384.247 59.0593 388.228C59.034 390.267 59.0266 392.306 59.0291 394.345C59.0303 395.279 59.1979 396.456 58.9468 397.363C58.7139 398.203 58.0571 398.943 57.5712 399.644C56.9953 400.475 55.9604 400.431 55.3766 399.644L55.1613 399.357C54.5386 398.535 53.9294 397.749 53.8404 396.675C53.7452 395.524 53.8124 394.337 53.8081 393.18C53.7982 390.849 53.8272 388.519 53.874 386.189C53.9643 381.723 54.1411 377.259 54.4039 372.8C54.9376 363.751 55.8159 354.721 57.0736 345.743C59.3092 329.785 62.66 313.979 67.0492 298.471C71.1901 283.841 76.0956 269.254 83.0839 255.702C89.5725 243.12 98.0846 231.415 109.317 222.621C114.54 218.532 120.226 215.124 126.356 212.557C129.448 211.263 132.695 210.206 135.996 209.604C139.262 209.008 142.513 209.091 145.808 208.834ZM203.602 375.876C204.185 375.872 204.836 375.999 205.336 376.32L206.004 376.835C206.186 377.066 206.366 377.298 206.545 377.531C206.964 378.073 207.019 378.951 206.932 379.597C206.912 380.028 206.783 380.429 206.545 380.801L206.037 381.457C205.547 381.854 205.139 382.137 204.547 382.328C204.237 382.428 203.939 382.448 203.642 382.433L203.542 382.427L203.602 382.435L203.498 382.423C203.401 382.415 203.304 382.405 203.207 382.391C203.14 382.383 203.074 382.378 203.008 382.369C202.944 382.364 202.882 382.361 202.818 382.367C202.065 382.438 201.308 382.013 200.773 381.525C200.292 381.085 199.859 380.152 199.927 379.491L199.955 379.214C200.006 378.748 200.048 378.564 200.246 378.096C200.439 377.641 200.709 377.239 201.075 376.899C201.778 376.249 202.638 375.883 203.602 375.876ZM201.271 341.758C202.271 340.674 203.987 340.595 205.226 341.25C205.528 341.41 205.806 341.667 206.072 341.881C206.743 342.42 207.006 343.394 207.043 344.214C207.08 345.025 206.65 345.988 206.072 346.548L205.932 346.683C205.586 347.017 205.091 347.308 204.608 347.396C203.829 347.538 203.175 347.534 202.449 347.229C201.826 346.968 201.289 346.547 200.923 345.976L200.864 345.879C200.839 345.839 200.815 345.799 200.793 345.757L200.761 345.694C200.066 344.365 200.253 342.861 201.271 341.758ZM201.789 307.46C202.239 307.319 202.69 307.299 203.141 307.4C203.447 307.401 203.732 307.478 203.996 307.63C204.283 307.71 204.533 307.855 204.744 308.064C204.999 308.214 205.202 308.415 205.352 308.669C205.652 308.995 205.854 309.377 205.959 309.816L206.08 310.713L205.959 311.61L205.617 312.416C205.523 312.538 205.429 312.66 205.333 312.782C205.182 313.036 204.979 313.238 204.724 313.389C204.558 313.553 204.367 313.676 204.154 313.761C203.399 314.299 202.394 314.475 201.499 314.23C200.968 314.082 200.507 313.814 200.116 313.428C199.728 313.038 199.459 312.58 199.31 312.051L199.249 311.629C199.17 311.063 199.157 310.75 199.318 310.031C199.389 309.714 199.594 309.268 199.701 309.08C200.159 308.278 200.908 307.728 201.789 307.46ZM240.927 282.785C242.222 282.776 243.516 282.779 244.81 282.793L245.78 282.806C247.406 282.831 248.798 282.664 250.075 283.787C251.003 284.601 250.594 285.967 249.714 286.58C248.38 287.509 246.707 287.042 245.174 286.94C243.557 286.832 241.939 286.742 240.32 286.67C237.186 286.531 234.051 286.442 230.913 286.428C227.783 286.415 224.647 286.444 221.517 286.494C218.332 286.546 215.016 286.841 211.848 286.513C211.413 286.468 211.315 285.899 211.745 285.751C214.729 284.723 218.087 284.39 221.215 283.997C224.441 283.592 227.667 283.305 230.913 283.119C234.248 282.928 237.587 282.809 240.927 282.785ZM201.783 272.694L201.89 272.696C202.459 272.698 202.992 272.831 203.49 273.096L203.596 273.155L204.28 273.681C204.698 274.101 204.988 274.595 205.148 275.165L205.269 276.059C205.287 276.522 205.19 276.954 204.978 277.355C204.842 277.772 204.609 278.132 204.28 278.437C203.973 278.765 203.611 278.996 203.192 279.132C202.82 279.326 202.422 279.424 201.996 279.424L201.89 279.422C201.28 279.42 200.711 279.267 200.184 278.963L199.5 278.437C199.081 278.017 198.791 277.523 198.631 276.953L198.51 276.059C198.493 275.596 198.59 275.164 198.802 274.763C198.938 274.346 199.171 273.985 199.5 273.681C199.806 273.353 200.169 273.121 200.588 272.986C200.96 272.791 201.358 272.694 201.783 272.694ZM211.802 193.695C212.53 192.646 213.849 193.579 213.661 194.423C213.71 196.793 213.832 199.092 214.374 201.413C214.622 202.476 214.947 203.54 215.448 204.513L215.659 204.923C216.308 206.199 216.812 207.402 215.938 208.801C215.526 209.461 214.781 209.957 213.974 209.922C210.396 209.768 209.904 204.812 209.687 202.045C209.462 199.195 210.16 196.063 211.802 193.695Z" fill="black"/>
<path fill-rule="evenodd" clip-rule="evenodd" d="M248.785 130.321C247.617 111.251 241.399 89.6296 223.096 80.2664C182.748 64.1528 129.698 104.732 126.89 146.186C125.911 160.376 133.828 175.882 148.297 179.827C151.514 184.068 156.379 186.658 161.18 188.906C218.372 218.433 255.315 194.431 248.785 130.321Z" fill="white"/>
<path fill-rule="evenodd" clip-rule="evenodd" d="M261.814 118.458C259.792 112.872 257.657 107.329 255.411 101.829C253.224 96.4758 251.248 91.0071 248.531 85.9077C232.307 55.4512 202.804 55.4512 187.553 59.4307C179.644 56.0399 164.83 56.9963 156.595 60.0562C143.263 65.0097 127.011 84.4959 121.454 93.2508C109.186 112.581 101.53 138.309 109.679 160.646C110.744 163.565 112.103 166.269 113.632 168.875C112.669 170.174 111.56 171.404 110.331 172.614C106.681 176.207 103.031 179.683 99.8773 183.736C96.7437 187.765 94.1458 192.048 92.2118 196.771C88.5652 205.678 88.3896 215.764 93.2107 224.263C97.4051 231.658 104.836 237.164 113.207 237.69C113.637 237.749 114.067 237.804 114.499 237.847C115.609 239.665 116.961 241.339 118.505 242.798C123.234 247.274 134.507 249.571 140.937 249.718C141.267 249.982 141.6 250.245 141.932 250.506C145.867 253.587 149.995 256.696 154.512 258.888C157.572 260.375 161.583 261.617 164.775 260.544C166.223 261.506 168.598 261.304 170.034 260.516C172.394 259.222 174.314 256.892 175.481 254.507C178.313 248.715 177.632 242.378 176.905 236.191C176.104 229.357 175.333 222.52 174.551 215.687C173.938 210.343 173.297 204.91 171.664 199.762C170.82 197.095 169.714 194.532 168.284 192.122C168.321 191.92 168.315 191.717 168.256 191.527C167.788 190.013 166.821 189.219 165.675 188.189C165.527 188.057 165.379 187.922 165.234 187.784C164.661 187.134 164.048 186.53 163.392 186.018C163.139 185.764 162.889 185.506 162.64 185.248C160.566 183.087 158.607 180.815 156.866 178.381C155.178 176.02 153.653 173.555 152.201 171.044C150.726 168.49 149.749 165.673 148.276 163.137C148.15 162.92 147.829 162.877 147.651 163.058C147.195 163.527 146.902 164.048 146.958 164.597L146.73 164.63C146.643 163.803 145.876 163.128 144.835 163.309C143.276 163.579 141.994 163.68 140.645 163.165C140.882 161.598 141.101 160.029 141.316 158.456C141.711 155.562 142.077 152.658 142.392 149.755C143.153 149.936 143.907 150.196 144.647 150.527C145.701 150.996 146.696 151.628 147.546 152.404C148.384 153.17 148.963 154.203 149.986 154.737C151.163 155.347 152.583 154.338 152.238 153.014C151.539 150.337 147.58 148.804 145.131 148.298C144.289 148.124 143.43 148.05 142.57 148.069C142.764 146.204 142.937 144.34 143.079 142.473C143.146 141.59 143.208 140.707 143.267 139.821C145.171 139.248 147.21 139.076 149.191 139.346C149.844 139.864 150.498 140.376 151.129 140.894C153.135 142.544 155.131 144.202 157.103 145.892C157.282 146.042 157.458 146.192 157.636 146.345C158.807 147.348 160.267 146.355 160.07 144.935C158.462 133.303 165.622 124.05 174.006 116.882C183.285 108.945 200.157 108.02 211.193 94.2714C216.276 95.3008 227.624 98.3583 232.307 105.784C238.863 116.189 238.007 125.513 238.506 137.316C239.005 149.129 240.274 161.451 237.579 173.098C235.092 183.838 228.36 193.014 217.916 197.233C217.657 197.337 217.395 197.438 217.133 197.537C211.732 199.563 205.838 200.136 200.157 199.069C193.869 197.886 188.619 195.023 183.387 191.5C183.085 191.301 182.645 191.711 182.873 192.012C189.768 201.105 203.312 204.144 214.055 201.743C214.557 201.629 215.057 201.507 215.553 201.372C213.149 208.249 213.633 215.797 216.763 222.493C218.646 226.521 221.517 230.007 225.014 232.757C228.869 235.787 233.65 238.233 236.325 242.485C238.774 246.382 238.047 250.76 233.854 253.011C232.797 253.581 232.39 255.424 233.438 256.233C233.838 256.539 234.239 256.852 234.649 257.159C236.996 258.922 243.445 262.233 244.489 262.355C253.763 263.45 259.999 256.674 263.995 248.682C268.687 239.3 267.467 227.867 262.297 218.933C258.15 211.765 249.983 204.702 253.23 195.63C254.388 192.389 256.758 189.627 259.059 187.131C261.684 184.289 264.506 181.628 267.024 178.684C269.525 175.763 271.744 172.583 272.982 168.917C274.791 163.557 273.891 157.763 272.532 152.413C269.621 140.928 265.84 129.597 261.814 118.458Z" fill="black"/>
<path fill-rule="evenodd" clip-rule="evenodd" d="M209.868 178.417C207.797 177.576 205.949 176.173 204.598 174.382C204.128 173.759 204.006 173.101 204.105 172.5C204.216 171.823 204.618 171.21 205.166 170.799C205.716 170.387 206.405 170.183 207.07 170.287C207.648 170.377 208.223 170.692 208.679 171.345L208.774 171.476C209.577 172.557 210.624 173.444 211.816 174.016C212.966 174.567 214.251 174.825 215.582 174.675C218.116 174.39 219.862 173.027 221.718 171.175C221.948 170.941 222.179 170.7 222.41 170.455C222.556 170.233 222.759 170.09 222.984 170.015C223.234 169.932 223.517 169.937 223.775 170.027C224.025 170.114 224.249 170.278 224.398 170.497C224.541 170.705 224.621 170.962 224.595 171.257C224.425 173.176 223.417 174.889 221.985 176.233C220.394 177.727 218.286 178.76 216.301 179.123C214.114 179.522 211.886 179.236 209.868 178.417ZM217.333 148.813C219.659 150.22 223.204 153.501 220.701 156.99C217.755 160.066 213.513 156.539 211.423 154.944C209.485 153.708 207.307 156.887 209.106 158.331C224.21 169.459 230.339 149.181 218.509 147.158C217.207 146.935 216.723 148.377 217.333 148.813ZM190.266 135.868C190.523 132.693 195.382 131.972 195.866 135.114C196.299 137.929 195.789 140.514 194.515 143.048C193.298 145.469 190.238 144.339 190.007 142.135C189.697 139.18 190.106 137.843 190.266 135.868ZM227.257 134.463C227.935 133.58 228.913 132.977 230.085 133.317C233.747 134.382 232.668 139.555 231.381 142.073C230.683 143.441 228.424 143.787 227.403 142.583C225.74 140.62 224.943 136.699 227.058 134.765C227.115 134.665 227.179 134.564 227.257 134.463ZM194.464 121.975L195.042 121.874C196.831 121.566 199.056 121.27 200.322 122.702C200.993 123.461 201.224 124.872 200.322 125.598C198.735 126.877 196.98 126.382 195.078 126.49C193.51 126.579 192.003 126.837 190.493 127.267C187.181 128.209 184.481 129.929 181.652 131.818C181.281 132.065 180.902 131.593 181.079 131.247C182.712 128.064 185.877 125.449 189.048 123.855C190.74 123.004 192.592 122.299 194.464 121.975ZM223.919 120.549L224.362 120.639C229.18 121.641 235.439 123.643 237.721 128.352C237.808 129.018 237.716 129.161 237.641 129.254L237.616 129.285C237.555 129.365 237.506 129.474 237.216 129.565C237.135 129.546 237.054 129.526 236.972 129.504C235.926 129.231 235.098 128.856 234.297 128.466L233.429 128.04C232.421 127.548 231.405 127.075 230.327 126.725C228.028 125.979 225.664 125.453 223.262 125.172C222.742 125.112 222.24 124.937 221.845 124.637C221.47 124.353 221.183 123.959 221.052 123.436C220.883 122.759 220.931 122.246 221.297 121.635C221.571 121.176 221.964 120.858 222.415 120.675C222.875 120.489 223.399 120.445 223.919 120.549Z" fill="black"/>
</svg>
